<?xml version="1.0" encoding="UTF-8"?>
<svg version="1.1" xmlns="http://www.w3.org/2000/svg" width="512" height="512">
<path d="M0 0 C33.72187088 30.02267725 61.48135295 75.56613682 64.15991211 121.48583984 C65.01108122 144.66693814 59.7250889 166.8842022 43.9140625 184.6015625 C28.53422206 201.03430804 6.78988144 209.67128898 -15.51742518 210.51020491 C-18.3603304 210.55082687 -21.20180114 210.56175821 -24.04499817 210.56123352 C-25.67082865 210.56674855 -25.67082865 210.56674855 -27.32950419 210.572375 C-30.94469064 210.58334715 -34.55984828 210.58724467 -38.17504883 210.59106445 C-40.77443532 210.59733408 -43.37382093 210.60398132 -45.97320557 210.61097717 C-53.76049345 210.63066414 -61.54778248 210.64079789 -69.335089 210.64970496 C-72.27471239 210.65321831 -75.21433472 210.65736459 -78.15395722 210.66154462 C-91.13640369 210.6800051 -104.11885019 210.69575181 -117.10130787 210.70344257 C-120.27286086 210.70535209 -123.44441384 210.70727248 -126.6159668 210.70922852 C-127.40412522 210.70971226 -128.19228364 210.710196 -129.00432565 210.7106944 C-141.75197722 210.71898235 -154.49953459 210.74430184 -167.24714509 210.77680919 C-180.36923244 210.80999553 -193.4912721 210.82790174 -206.61340159 210.83108681 C-213.96703137 210.83324124 -221.32052376 210.84183191 -228.67411232 210.86754799 C-235.60089314 210.89171733 -242.52742446 210.89500865 -249.45423889 210.88478661 C-251.98240671 210.88429433 -254.51058718 210.89052253 -257.03871727 210.90434265 C-286.2770333 211.05510199 -313.2803657 206.74578327 -335.09765625 185.5 C-350.94121624 169.11011035 -355.49202188 147.75680147 -355.38037109 125.72387695 C-354.88273834 102.42021687 -347.47309981 80.0727467 -336.9609375 59.4140625 C-336.66638672 58.81464844 -336.37183594 58.21523438 -336.06835938 57.59765625 C-321.51413112 27.98624585 -297.8529077 2.25332899 -270.9609375 -16.5859375 C-270.39020508 -16.99070312 -269.81947266 -17.39546875 -269.23144531 -17.8125 C-194.69355258 -70.08236396 -90.13178672 -68.01258594 0 0 Z " fill="#000000" transform="translate(354.9609375,301.5859375)"/>
<path d="M0 0 C1.9480957 -0.02416992 1.9480957 -0.02416992 3.93554688 -0.04882812 C34.32147306 -0.06393798 60.88422674 12.7509542 82.6875 33.3125 C83.36425781 33.92480469 84.04101562 34.53710938 84.73828125 35.16796875 C106.53253458 55.65194633 116.35443547 85.7320011 117.81640625 114.8828125 C118.55240786 146.97248263 106.74861536 176.688686 84.92089844 200.05200195 C64.04448393 221.67918397 35.73359276 234.59376173 5.62890625 235.515625 C-25.56648777 235.97149554 -53.23007038 227.51278933 -77.3125 207.3125 C-78.13234375 206.64476562 -78.9521875 205.97703125 -79.796875 205.2890625 C-102.20670953 186.35661608 -115.47284044 157.13675522 -118.3125 128.3125 C-120.42428082 97.15478464 -112.02179061 66.42327021 -91.75 42.2578125 C-67.5599791 14.83520428 -36.74285689 -0.0903661 0 0 Z " fill="#000000" transform="translate(209.3125,-0.3125)"/>
<path d="M0 0 C7.73721827 5.48221748 11.52189852 13.22303689 13.3125 22.375 C13.65244353 27.42518982 13.59785874 32.44145588 13.5 37.5 C13.48491432 38.85154746 13.47123283 40.20311135 13.45898438 41.5546875 C13.42390724 44.82855371 13.37475097 48.1015568 13.3125 51.375 C14.19921387 51.35928955 15.08592773 51.3435791 15.99951172 51.32739258 C19.33567322 51.27581591 22.67140208 51.23843509 26.0078125 51.21020508 C27.4431025 51.19525414 28.87834791 51.17488576 30.31347656 51.14868164 C42.005681 50.94076587 51.9325032 51.50847784 61.265625 59.26953125 C69.06676664 67.29398801 70.65633141 75.33974825 70.69750977 86.03808594 C70.5782888 92.83561447 69.52542672 97.87568345 65.3125 103.375 C64.81621094 104.02597656 64.31992187 104.67695313 63.80859375 105.34765625 C58.49740289 111.37553793 51.28407364 115.23289382 43.23242188 115.77514648 C38.69300677 115.92485774 34.16363324 115.81345432 29.625 115.6875 C28.03714485 115.66236288 26.44925096 115.63955934 24.86132812 115.61914062 C21.01074428 115.56462449 17.16206135 115.47866289 13.3125 115.375 C13.32821045 116.2314209 13.3439209 117.0878418 13.36010742 117.97021484 C13.4117043 121.1944753 13.44907546 124.418523 13.47729492 127.64306641 C13.49223947 129.02985627 13.51260278 130.41660007 13.53881836 131.80322266 C13.76833179 144.26895237 12.58736384 154.58026321 4.3125 164.375 C-2.25763321 170.84622798 -10.01456198 173.41018721 -19.125 173.8125 C-29.20051647 173.47095707 -36.79763807 169.57506898 -43.6875 162.375 C-50.18684652 155.34867944 -51.82467064 147.61009956 -51.78515625 138.32421875 C-51.7837413 137.66541214 -51.78232635 137.00660553 -51.78086853 136.32783508 C-51.775305 134.23934238 -51.76275947 132.15095989 -51.75 130.0625 C-51.74498028 128.63997551 -51.7404182 127.21744934 -51.73632812 125.79492188 C-51.72534757 122.32157923 -51.70810835 118.84830039 -51.6875 115.375 C-52.62432617 115.4064209 -53.56115234 115.4378418 -54.52636719 115.47021484 C-58.06029118 115.57353831 -61.59257182 115.64819435 -65.12744141 115.70458984 C-66.64625648 115.73444607 -68.16490404 115.77514835 -69.68310547 115.82763672 C-80.9171231 116.20581157 -90.08186751 115.25739335 -98.91064453 107.39526367 C-105.72571754 100.36575652 -109.05334794 91.34794531 -108.90625 81.62109375 C-107.98199872 72.13101369 -103.78487435 64.66585454 -96.6875 58.375 C-89.69367502 53.26980286 -83.20273493 51.10448296 -74.44140625 51.1796875 C-73.78542953 51.1825174 -73.12945282 51.18534729 -72.45359802 51.18826294 C-70.38553591 51.19934016 -68.31792827 51.22441937 -66.25 51.25 C-64.83659485 51.26004598 -63.42318283 51.26916898 -62.00976562 51.27734375 C-58.56886606 51.29923816 -55.12822748 51.33367949 -51.6875 51.375 C-51.70321045 50.54887207 -51.7189209 49.72274414 -51.73510742 48.87158203 C-51.78672737 45.75913888 -51.82408622 42.64691642 -51.85229492 39.53417969 C-51.87451479 37.54347095 -51.91266595 35.55296032 -51.95117188 33.5625 C-52.04611422 21.03011001 -50.09386348 12.13775387 -41.5 2.75 C-29.98206056 -8.4700617 -13.09844788 -7.87218905 0 0 Z " fill="#000000" transform="translate(441.6875,101.625)"/>
</svg>
