<?xml version="1.0" encoding="UTF-8"?>
<svg version="1.1" xmlns="http://www.w3.org/2000/svg" width="500" height="500">
<path d="M0 0 C0.87527344 0.7528125 1.75054687 1.505625 2.65234375 2.28125 C7.87872662 6.87103586 12.57896631 11.63646023 17 17 C18.08087891 18.28390625 18.08087891 18.28390625 19.18359375 19.59375 C25.89001825 27.64598313 31.87554352 35.85508151 37 45 C37.93779297 46.64935547 37.93779297 46.64935547 38.89453125 48.33203125 C53.1708564 74.23876386 60.45832149 103.1078568 60.3125 132.6875 C60.31100952 133.4363446 60.30951904 134.18518921 60.3079834 134.95672607 C60.26764275 146.2367538 59.62793002 157.00329713 57 168 C56.70598986 169.34222022 56.41303513 170.68467204 56.12109375 172.02734375 C49.28097496 202.30885305 35.0429899 228.79095951 14.125 251.65234375 C12.33854024 253.62598771 10.62883648 255.6330777 8.9375 257.6875 C5.6318241 261.55011043 1.92751851 264.78243094 -2 268 C-3.33611328 269.10988281 -3.33611328 269.10988281 -4.69921875 270.2421875 C-34.40723015 294.05424273 -72.66311279 309.4728678 -111 310 C-111.74789795 310.0117627 -112.4957959 310.02352539 -113.26635742 310.03564453 C-149.63678445 310.36599724 -186.18298683 299.93374944 -216 279 C-216.6084375 278.58476074 -217.216875 278.16952148 -217.84375 277.74169922 C-256.89123535 250.94656263 -281.92698922 209.18484067 -290.59301758 163.02905273 C-293.85251395 144.35014904 -293.88629876 125.70466316 -291 107 C-290.88172852 106.20255371 -290.76345703 105.40510742 -290.64160156 104.58349609 C-286.49351703 77.46262279 -276.19908325 52.18449908 -260 30 C-259.57243408 29.40405029 -259.14486816 28.80810059 -258.7043457 28.1940918 C-253.03422693 20.38084215 -246.68022517 13.39788955 -239.875 6.5625 C-239.13531982 5.81742188 -238.39563965 5.07234375 -237.63354492 4.3046875 C-173.257562 -59.25117379 -67.05113248 -58.1451042 0 0 Z M-260 105 C-260 123.48 -260 141.96 -260 161 C-257.69 161 -255.38 161 -253 161 C-252.67 152.42 -252.34 143.84 -252 135 C-248.37 135.33 -244.74 135.66 -241 136 C-240.67 144.25 -240.34 152.5 -240 161 C-238.02 161 -236.04 161 -234 161 C-234 142.52 -234 124.04 -234 105 C-235.98 105 -237.96 105 -240 105 C-240.33 113.25 -240.66 121.5 -241 130 C-244.96 129.67 -248.92 129.34 -253 129 C-253 121.08 -253 113.16 -253 105 C-255.31 105 -257.62 105 -260 105 Z M-224 105 C-224.02463956 112.81453214 -224.04283105 120.62904188 -224.05493164 128.44360352 C-224.05997383 131.10441481 -224.06680736 133.76522332 -224.07543945 136.42602539 C-224.08751009 140.24105516 -224.09322929 144.05604844 -224.09765625 147.87109375 C-224.10281754 149.06899033 -224.10797882 150.2668869 -224.11329651 151.50108337 C-224.11337204 152.6021492 -224.11344757 153.70321503 -224.11352539 154.83764648 C-224.115746 155.81249496 -224.11796661 156.78734344 -224.12025452 157.79173279 C-224.24781585 159.97472116 -224.24781585 159.97472116 -223 161 C-221.43827255 161.08685603 -219.87270656 161.10702219 -218.30859375 161.09765625 C-217.36435547 161.09443359 -216.42011719 161.09121094 -215.44726562 161.08789062 C-213.95743164 161.07532227 -213.95743164 161.07532227 -212.4375 161.0625 C-211.44041016 161.05798828 -210.44332031 161.05347656 -209.41601562 161.04882812 C-206.94395151 161.03700007 -204.47200482 161.02051849 -202 161 C-201.957279 159.33388095 -201.95936168 157.66617115 -202 156 C-202.495 155.505 -202.495 155.505 -203 155 C-206.59648423 155.00909351 -210.18310132 155.13349486 -213.77734375 155.2578125 C-214.84082031 155.17273438 -215.90429688 155.08765625 -217 155 C-217.66 154.01 -218.32 153.02 -219 152 C-218.505 151.505 -218.505 151.505 -218 151 C-217.9531185 148.49183963 -217.95400652 146.00664455 -218 143.5 C-218.04599348 140.99335545 -218.0468815 138.50816037 -218 136 C-217 135 -217 135 -214.78515625 134.9375 C-212.97265488 134.97910692 -211.16015487 135.02077341 -209.34765625 135.0625 C-206.97754593 135.16512793 -206.97754593 135.16512793 -205 134 C-205 132.35 -205 130.7 -205 129 C-209.62 129 -214.24 129 -219 129 C-219.33 127.68 -219.66 126.36 -220 125 C-219.34 125 -218.68 125 -218 125 C-218 120.38 -218 115.76 -218 111 C-212.72 111 -207.44 111 -202 111 C-202 109.02 -202 107.04 -202 105 C-209.26 105 -216.52 105 -224 105 Z M-187 105 C-187.2165625 106.7634375 -187.2165625 106.7634375 -187.4375 108.5625 C-188.11034104 113.89850322 -188.81661031 119.19551687 -189.90625 124.46484375 C-191.09282034 130.3509208 -192.08688631 136.26333625 -193.0625 142.1875 C-193.23587891 143.22841797 -193.40925781 144.26933594 -193.58789062 145.34179688 C-194.45163887 150.55407075 -195.28184659 155.76562411 -196 161 C-194.02 161 -192.04 161 -190 161 C-189.93941406 160.28972656 -189.87882812 159.57945312 -189.81640625 158.84765625 C-189.73261719 157.92855469 -189.64882812 157.00945312 -189.5625 156.0625 C-189.44068359 154.68771484 -189.44068359 154.68771484 -189.31640625 153.28515625 C-189 151 -189 151 -188 150 C-186.15108054 149.76636119 -184.29511969 149.58696365 -182.4375 149.4375 C-181.42558594 149.35371094 -180.41367188 149.26992188 -179.37109375 149.18359375 C-178.19740234 149.09271484 -178.19740234 149.09271484 -177 149 C-174.7655402 153.03292745 -174.45503257 156.44967434 -174 161 C-172.02 161 -170.04 161 -168 161 C-168.37845385 152.20094794 -169.85241089 143.67902997 -171.41040039 135.02661133 C-172.78199371 127.38185853 -173.97814801 119.72388741 -175.04833984 112.03125 C-175.27679464 108.19750576 -175.27679464 108.19750576 -177 105 C-178.68608966 104.92794489 -180.37500659 104.91613932 -182.0625 104.9375 C-182.98160156 104.94652344 -183.90070313 104.95554688 -184.84765625 104.96484375 C-185.55792969 104.97644531 -186.26820313 104.98804688 -187 105 Z M-160 105 C-160 123.48 -160 141.96 -160 161 C-152.74 161 -145.48 161 -138 161 C-138 159.35 -138 157.7 -138 156 C-144.93 155.505 -144.93 155.505 -152 155 C-152.7146879 151.42656052 -153.12345454 148.82636075 -153.11352539 145.30151367 C-153.11344986 144.40095749 -153.11337433 143.50040131 -153.11329651 142.57255554 C-153.10813522 141.6140419 -153.10297394 140.65552826 -153.09765625 139.66796875 C-153.0962413 138.67622147 -153.09482635 137.68447418 -153.09336853 136.66267395 C-153.08778418 133.50425157 -153.07523452 130.34590085 -153.0625 127.1875 C-153.05748298 125.04231873 -153.05292042 122.89713635 -153.04882812 120.75195312 C-153.03781988 115.50127776 -153.0210973 110.250644 -153 105 C-155.31 105 -157.62 105 -160 105 Z M-131 105 C-131.02526563 112.81452752 -131.04283105 120.62904458 -131.05493164 128.44360352 C-131.05997383 131.10441481 -131.06680736 133.76522332 -131.07543945 136.42602539 C-131.08751009 140.24105516 -131.09322929 144.05604844 -131.09765625 147.87109375 C-131.10281754 149.06899033 -131.10797882 150.2668869 -131.11329651 151.50108337 C-131.11337204 152.6021492 -131.11344757 153.70321503 -131.11352539 154.83764648 C-131.115746 155.81249496 -131.11796661 156.78734344 -131.12025452 157.79173279 C-131.24781585 159.97472116 -131.24781585 159.97472116 -130 161 C-127.25322785 161.20831425 -124.56278403 161.32470387 -121.8125 161.375 C-120.67844727 161.43107422 -120.67844727 161.43107422 -119.52148438 161.48828125 C-115.50703319 161.55095265 -112.80535761 161.29660691 -109.57421875 158.7890625 C-106.22734199 155.16285611 -105.13845474 152.87521154 -104.77734375 147.984375 C-105.12427392 140.97807797 -106.10918107 135.91649745 -110.8125 130.546875 C-114.65611802 127.82888797 -118.51321918 128.26875403 -123 129 C-124.13480527 125.39006828 -124.10015767 122.0157673 -124.0625 118.25 C-124.05347656 117.07953125 -124.04445312 115.9090625 -124.03515625 114.703125 C-124.02355469 113.81109375 -124.01195312 112.9190625 -124 112 C-119.89828452 111.02962771 -117.79703492 110.99600935 -114 113 C-112.58365167 115.83269666 -112.6536995 118.47466438 -112.4375 121.625 C-112.31181641 123.40777344 -112.31181641 123.40777344 -112.18359375 125.2265625 C-112.12300781 126.14179688 -112.06242187 127.05703125 -112 128 C-108.45721799 126.96688147 -108.45721799 126.96688147 -106.1875 124.375 C-105.67787604 117.91976312 -105.35525786 113.59728257 -109 108 C-110.85848607 105.98980078 -112.27307586 105.0857022 -115.01074219 104.76293945 C-117.4306747 104.70455718 -119.83054318 104.73878217 -122.25 104.8125 C-123.51070312 104.83280273 -123.51070312 104.83280273 -124.796875 104.85351562 C-126.86485938 104.88876536 -128.93251271 104.9425698 -131 105 Z M-97 105 C-97.0497018 111.10146925 -97.08586193 117.20281877 -97.10986328 123.30444336 C-97.11987668 125.37705541 -97.13349135 127.44965349 -97.15087891 129.5222168 C-97.17533313 132.51354434 -97.18653 135.50468394 -97.1953125 138.49609375 C-97.20563507 139.41208847 -97.21595764 140.32808319 -97.22659302 141.27183533 C-97.40855036 151.38614321 -97.40855036 151.38614321 -93.0625 160 C-88.90228322 162.0170748 -85.59004657 162.2415814 -81 162 C-78.64630193 161.11935073 -78.64630193 161.11935073 -77 160 C-77 159.34 -77 158.68 -77 158 C-76.34 158 -75.68 158 -75 158 C-73.18274745 154.88372945 -72.7544395 152.63873608 -72.77294922 149.04785156 C-72.77310028 148.06713684 -72.77325134 147.08642212 -72.77340698 146.07598877 C-72.78372955 145.02481873 -72.79405212 143.97364868 -72.8046875 142.890625 C-72.80893234 141.26770538 -72.80893234 141.26770538 -72.81326294 139.61199951 C-72.82445391 136.15788696 -72.8495568 132.70403412 -72.875 129.25 C-72.88503119 126.90755583 -72.8941568 124.56510759 -72.90234375 122.22265625 C-72.9243897 116.48168229 -72.95785666 110.7408597 -73 105 C-74.98 105 -76.96 105 -79 105 C-78.98525131 105.59690643 -78.97050262 106.19381287 -78.95530701 106.80880737 C-78.80322549 113.00505113 -78.65839177 119.20143383 -78.51782227 125.39794922 C-78.46435579 127.71244635 -78.40902294 130.02690113 -78.35180664 132.34130859 C-78.2700253 135.66234198 -78.19489267 138.98346836 -78.12109375 142.3046875 C-78.09405869 143.34430634 -78.06702362 144.38392517 -78.03916931 145.45504761 C-78.01907303 146.41589264 -77.99897675 147.37673767 -77.97827148 148.36669922 C-77.95828598 149.21497284 -77.93830048 150.06324646 -77.91770935 150.93722534 C-78 153 -78 153 -79 155 C-80.45792884 155.05399736 -81.91642712 155.09279177 -83.375 155.125 C-84.18710937 155.14820313 -84.99921875 155.17140625 -85.8359375 155.1953125 C-88 155 -88 155 -90 153 C-90.2784729 150.93722534 -90.2784729 150.93722534 -90.31884766 148.36669922 C-90.33871735 147.40585419 -90.35858704 146.44500916 -90.37905884 145.45504761 C-90.39061005 144.41542877 -90.40216125 143.37580994 -90.4140625 142.3046875 C-90.43342865 141.24210724 -90.4527948 140.17952698 -90.4727478 139.08474731 C-90.53266084 135.68158057 -90.57897598 132.27838022 -90.625 128.875 C-90.66316897 126.5715996 -90.70222005 124.26821364 -90.7421875 121.96484375 C-90.83837187 116.31002372 -90.92338481 110.65511717 -91 105 C-92.98 105 -94.96 105 -97 105 Z M-63 106 C-63.0987517 107.68255235 -63.12798904 109.36924028 -63.12939453 111.0546875 C-63.13254669 112.13250488 -63.13569885 113.21032227 -63.13894653 114.32080078 C-63.1369223 115.49368652 -63.13489807 116.66657227 -63.1328125 117.875 C-63.13376923 119.0697998 -63.13472595 120.26459961 -63.13571167 121.49560547 C-63.13639371 124.0276698 -63.13453778 126.55973588 -63.13037109 129.09179688 C-63.12502321 132.9831126 -63.13031533 136.87431289 -63.13671875 140.765625 C-63.13605797 143.21875026 -63.13477682 145.67187544 -63.1328125 148.125 C-63.13483673 149.29788574 -63.13686096 150.47077148 -63.13894653 151.67919922 C-63.13579437 152.7570166 -63.13264221 153.83483398 -63.12939453 154.9453125 C-63.12859894 155.89937988 -63.12780334 156.85344727 -63.12698364 157.83642578 C-63.24160848 159.97987889 -63.24160848 159.97987889 -62 161 C-59.40218031 161.15420847 -56.84924714 161.23169544 -54.25 161.25 C-53.53328125 161.270625 -52.8165625 161.29125 -52.078125 161.3125 C-47.51695781 161.34603799 -44.4600786 161.06179617 -41 158 C-38.20867165 152.65467813 -37.55345741 148.40943397 -37.6015625 142.43359375 C-37.59869232 141.63647476 -37.59582214 140.83935577 -37.59286499 140.01808167 C-37.59083495 138.34318323 -37.5962902 136.6682605 -37.60888672 134.9934082 C-37.62497777 132.44102693 -37.60899177 129.89022374 -37.58984375 127.33789062 C-37.59182596 125.70312153 -37.59566916 124.06835342 -37.6015625 122.43359375 C-37.59548981 121.67719101 -37.58941711 120.92078827 -37.5831604 120.14146423 C-37.6462292 115.35471687 -38.46971104 112.06694672 -41 108 C-45.06085017 104.52344482 -49.13186012 104.6027154 -54.25 104.75 C-55.34828125 104.75773438 -55.34828125 104.75773438 -56.46875 104.765625 C-60.0305461 104.50977362 -60.0305461 104.50977362 -63 106 Z M-29 105 C-29.05067793 112.33232678 -29.08572428 119.66460844 -29.10986328 126.99707031 C-29.11992561 129.49187915 -29.13357679 131.98667618 -29.15087891 134.48144531 C-29.17511668 138.06578484 -29.18648082 141.64996853 -29.1953125 145.234375 C-29.20563507 146.35116638 -29.21595764 147.46795776 -29.22659302 148.61859131 C-29.22674408 149.65936829 -29.22689514 150.70014526 -29.22705078 151.77246094 C-29.231492 152.68735291 -29.23593323 153.60224487 -29.24050903 154.54486084 C-28.98635175 157.13932269 -28.31398098 158.76969393 -27 161 C-24.62374823 161.10883596 -22.25256024 161.18766696 -19.875 161.25 C-19.20984375 161.28351563 -18.5446875 161.31703125 -17.859375 161.3515625 C-12.72295168 161.45227668 -9.8928447 160.30371983 -6 157 C-4.30890436 154.22139008 -3.7426677 152.11177652 -3.69360352 148.87744141 C-3.67761612 148.07625885 -3.66162872 147.27507629 -3.64515686 146.44961548 C-3.63979416 145.592258 -3.63443146 144.73490051 -3.62890625 143.8515625 C-3.61987778 142.96141449 -3.6108493 142.07126648 -3.60154724 141.15414429 C-3.58705633 139.2730444 -3.57816088 137.39189425 -3.57446289 135.51074219 C-3.56256927 132.64170899 -3.51337644 129.77482931 -3.46289062 126.90625 C-3.45342543 125.07553129 -3.44619086 123.24479942 -3.44140625 121.4140625 C-3.42187393 120.56075348 -3.40234161 119.70744446 -3.38221741 118.82827759 C-3.41419284 114.58002194 -3.68655683 111.84147634 -6.40991211 108.47412109 C-9.59568333 105.43098739 -10.88484341 104.87242847 -15.1328125 104.90234375 C-15.93847656 104.90556641 -16.74414062 104.90878906 -17.57421875 104.91210938 C-18.41597656 104.92048828 -19.25773437 104.92886719 -20.125 104.9375 C-21.39923828 104.94426758 -21.39923828 104.94426758 -22.69921875 104.95117188 C-24.79950909 104.96297126 -26.8997633 104.98090694 -29 105 Z M2 105 C3.77527566 112.88049195 6.10010162 120.39663708 8.9140625 127.96875 C10.52790568 132.47357844 11.15171228 136.27847219 11.31640625 141.078125 C11.37924805 142.81835938 11.37924805 142.81835938 11.44335938 144.59375 C11.48267578 145.8003125 11.52199219 147.006875 11.5625 148.25 C11.60568359 149.47203125 11.64886719 150.6940625 11.69335938 151.953125 C11.79937355 154.9686392 11.90143936 157.98423448 12 161 C14.31 161 16.62 161 19 161 C19.01981934 160.22922119 19.03963867 159.45844238 19.06005859 158.66430664 C19.15604454 155.13006151 19.26542329 151.59634883 19.375 148.0625 C19.4059375 146.85013672 19.436875 145.63777344 19.46875 144.38867188 C19.77065415 135.10511932 20.54487847 127.45177871 24.98046875 119.26171875 C27.01922913 114.73895148 27.9377382 109.82846271 29 105 C27.35 105 25.7 105 24 105 C20.91438592 112.01275928 18.79126861 118.3510701 18 126 C16.68 126 15.36 126 14 126 C13.73445313 124.81921875 13.46890625 123.6384375 13.1953125 122.421875 C12.83880998 120.86452189 12.48202428 119.30723358 12.125 117.75 C11.95097656 116.97269531 11.77695312 116.19539062 11.59765625 115.39453125 C11.42363281 114.64042969 11.24960937 113.88632813 11.0703125 113.109375 C10.91320801 112.41811523 10.75610352 111.72685547 10.59423828 111.01464844 C9.95653155 108.85262875 9.06200166 106.98395915 8 105 C6.02 105 4.04 105 2 105 Z " fill="#EF8E33" transform="translate(367,117)"/>
<path d="M0 0 C1.64574566 -0.02688151 3.29161413 -0.04634123 4.9375 -0.0625 C5.85402344 -0.07410156 6.77054687 -0.08570313 7.71484375 -0.09765625 C10 0 10 0 11 1 C11.07646058 3.93627755 11.090614 6.84930775 11.0625 9.78515625 C11.05871338 10.67480576 11.05492676 11.56445526 11.05102539 12.48106384 C11.03465795 16.29887472 11.00675485 20.1165799 10.97949219 23.93432617 C10.96128773 26.71793106 10.9492595 29.50151781 10.9375 32.28515625 C10.92920166 33.13755386 10.92090332 33.98995148 10.91235352 34.86817932 C10.89157288 40.00806095 11.25614225 44.91270118 12 50 C14.31 50.66 16.62 51.32 19 52 C19 52.33 19 52.66 19 53 C11.48593571 53.36954415 11.48593571 53.36954415 9.39360046 51.77836609 C7.58242869 49.46713949 7.6364638 48.16909677 7.65942383 45.25317383 C7.65976372 43.81201958 7.65976372 43.81201958 7.66011047 42.3417511 C7.67559433 41.30729355 7.69107819 40.272836 7.70703125 39.20703125 C7.71127609 38.14586594 7.71552094 37.08470062 7.71989441 35.99137878 C7.73670294 32.59816235 7.77435981 29.20553728 7.8125 25.8125 C7.827544 23.51368044 7.84123289 21.21485159 7.85351562 18.91601562 C7.88661355 13.27714158 7.9368347 7.63861303 8 2 C6.02 2 4.04 2 2 2 C2 13.55 2 25.1 2 37 C0.68 36.67 -0.64 36.34 -2 36 C-2.66 39.96 -3.32 43.92 -4 48 C-4.66 48 -5.32 48 -6 48 C-6.07476562 47.154375 -6.14953125 46.30875 -6.2265625 45.4375 C-6.9787567 38.94798143 -7.77661446 33.41646454 -12.078125 28.31640625 C-15.22254793 26.16260436 -18.14832097 26.50147841 -21.828125 26.9140625 C-22.54484375 26.94242188 -23.2615625 26.97078125 -24 27 C-26.55948999 24.44051001 -26.26068731 22.72792805 -26.2734375 19.234375 C-26.26570312 18.49703125 -26.25796875 17.7596875 -26.25 17 C-26.25773438 16.26265625 -26.26546875 15.5253125 -26.2734375 14.765625 C-26.2533196 9.2533196 -26.2533196 9.2533196 -24 7 C-16.82391321 7.22781228 -16.82391321 7.22781228 -14.2578125 9.6328125 C-12.57317243 12.80328418 -12.70545378 15.18179255 -12.8125 18.75 C-12.83957031 19.92046875 -12.86664063 21.0909375 -12.89453125 22.296875 C-12.92933594 23.18890625 -12.96414062 24.0809375 -13 25 C-10.04352775 23.81188641 -10.04352775 23.81188641 -8.25 21.375 C-7.55825573 14.80342941 -7.56082895 10.77780736 -11 5 C-11.33 4.34 -11.66 3.68 -12 3 C-10.35 3.33 -8.7 3.66 -7 4 C-6.67 5.32 -6.34 6.64 -6 8 C-4.68 8 -3.36 8 -2 8 C-2.33 6.02 -2.66 4.04 -3 2 C-2.01 2 -1.02 2 0 2 C0 1.34 0 0.68 0 0 Z " fill="#EF9440" transform="translate(268,220)"/>
<path d="M0 0 C3.00664629 0.2405317 4.64329554 0.59553036 7.125 2.25 C8.75091155 5.5018231 8.28806852 9.07910038 8.29296875 12.65234375 C8.29629715 13.48584854 8.29962555 14.31935333 8.30305481 15.17811584 C8.30812161 16.94255012 8.31046321 18.706994 8.31030273 20.47143555 C8.31248841 23.17317469 8.33064426 25.87450506 8.34960938 28.57617188 C8.35254348 30.2890611 8.35452816 32.00195227 8.35546875 33.71484375 C8.36265427 34.5242894 8.36983978 35.33373505 8.37724304 36.16770935 C8.36139392 40.05245573 8.32986601 41.94270098 6.125 45.25 C3.9609375 45.98046875 3.9609375 45.98046875 1.5 46.4375 C0.68273437 46.59605469 -0.13453125 46.75460937 -0.9765625 46.91796875 C-1.60304688 47.02753906 -2.22953125 47.13710938 -2.875 47.25 C-4.92247898 44.17878154 -5.12627592 43.54875086 -5.13378906 40.08569336 C-5.14009338 39.25150375 -5.14639771 38.41731415 -5.15289307 37.55784607 C-5.1488446 36.6609053 -5.14479614 35.76396454 -5.140625 34.83984375 C-5.14253845 33.91659805 -5.1444519 32.99335236 -5.14642334 32.04212952 C-5.14778408 30.09115323 -5.14409541 28.14016786 -5.13574219 26.18920898 C-5.12502897 23.19559511 -5.13564751 20.2025797 -5.1484375 17.20898438 C-5.14711612 15.31510284 -5.14455419 13.42122167 -5.140625 11.52734375 C-5.14467346 10.62837875 -5.14872192 9.72941376 -5.15289307 8.8032074 C-5.14658875 7.97216995 -5.14028442 7.14113251 -5.13378906 6.28491211 C-5.13219788 5.55227646 -5.13060669 4.81964081 -5.12896729 4.06480408 C-4.65865505 0.70403828 -3.17641475 0.27620998 0 0 Z " fill="#EF8F35" transform="translate(348.875,226.75)"/>
<path d="M0 0 C1.69448853 1.30480957 1.69448853 1.30480957 3 3 C3.29841479 5.97739136 3.42027068 8.74118211 3.3984375 11.71875 C3.40274277 13.00017883 3.40274277 13.00017883 3.40713501 14.30749512 C3.40917581 16.11304385 3.40364483 17.91861469 3.39111328 19.72412109 C3.37505944 22.48976012 3.39096099 25.25393775 3.41015625 28.01953125 C3.40817382 29.77344073 3.40433015 31.5273493 3.3984375 33.28125 C3.40754654 34.52352356 3.40754654 34.52352356 3.4168396 35.79089355 C3.34582377 41.58015871 3.34582377 41.58015871 1.59683228 43.70349121 C-0.31198059 45.25330499 -1.57422002 45.5717775 -4 45.875 C-5.0209375 46.02582031 -5.0209375 46.02582031 -6.0625 46.1796875 C-8 46 -8 46 -9.59881592 44.74330139 C-11.30742038 42.61751894 -11.37018545 41.62479017 -11.35644531 38.92749023 C-11.35944641 38.11332138 -11.36244751 37.29915253 -11.36553955 36.46031189 C-11.35319275 35.5852449 -11.34084595 34.71017792 -11.328125 33.80859375 C-11.32625183 32.9075441 -11.32437866 32.00649445 -11.32244873 31.07814026 C-11.31572794 29.17420753 -11.30181288 27.27028862 -11.28125 25.36645508 C-11.2500837 22.44534538 -11.24027803 19.52477513 -11.234375 16.60351562 C-11.22520546 14.75520173 -11.21482984 12.90689333 -11.203125 11.05859375 C-11.19887512 10.18150253 -11.19462524 9.30441132 -11.19024658 8.40074158 C-11.11719823 2.23439646 -11.11719823 2.23439646 -10 0 C-6.22941703 -1.25686099 -3.86146303 -0.82745636 0 0 Z " fill="#EF9736" transform="translate(320,228)"/>
<path d="M0 0 C9 0 9 0 13 2 C13.66 2 14.32 2 15 2 C15 1.34 15 0.68 15 0 C23.25 0 31.5 0 40 0 C40 0.33 40 0.66 40 1 C32.74 1 25.48 1 18 1 C18 18.49 18 35.98 18 54 C17.01 54.495 17.01 54.495 16 55 C15.19968257 48.75377257 14.89795578 42.72852597 15 36.4375 C15.09572338 30.5074366 14.8612819 24.87421169 14 19 C12.68 19 11.36 19 10 19 C10 31.87 10 44.74 10 58 C7.03 58 4.06 58 1 58 C0.67 49.42 0.34 40.84 0 32 C-0.66 31.67 -1.32 31.34 -2 31 C-0.68 31.33 0.64 31.66 2 32 C2 40.25 2 48.5 2 57 C3.98 57 5.96 57 8 57 C8 38.52 8 20.04 8 1 C6.02 1 4.04 1 2 1 C2 8.59 2 16.18 2 24 C1.34 24 0.68 24 0 24 C0 16.08 0 8.16 0 0 Z " fill="#ECA156" transform="translate(125,221)"/>
<path d="M0 0 C1.34602732 4.68096069 0.31848678 8.40756609 -0.625 13.125 C-0.9857968 15.89110883 -0.6705787 17.37062561 0 20 C-1.31129922 21.35500919 -2.64691687 22.68671343 -4 24 C-4.79681318 26.64184541 -4.79681318 26.64184541 -5 29 C-5.66 29 -6.32 29 -7 29 C-7 30.32 -7 31.64 -7 33 C-7.66 33 -8.32 33 -9 33 C-10.05556555 52.98836896 -10.5160485 72.99148409 -11 93 C-10.34 93 -9.68 93 -9 93 C-8.95101562 93.75023437 -8.90203125 94.50046875 -8.8515625 95.2734375 C-8.2854427 106.44304262 -8.2854427 106.44304262 -5 117 C-5.66 117.99 -6.32 118.98 -7 120 C-12.81356068 94.34695799 -16.04154615 70.19124544 -12 44 C-11.88172852 43.20255371 -11.76345703 42.40510742 -11.64160156 41.58349609 C-9.42603154 27.09772718 -5.16581086 13.69090266 0 0 Z " fill="#EFAF6E" transform="translate(88,180)"/>
<path d="M0 0 C7.16592913 0.57874611 7.16592913 0.57874611 9.78515625 3.27734375 C11.77843134 9.39005402 12.32434971 14.12114528 9.72265625 20.15234375 C6.20325771 22.40084837 2.83191832 22.51761149 -1.27734375 22.15234375 C-3.27734375 20.15234375 -3.27734375 20.15234375 -3.4375 17.2890625 C-3.40527344 16.15082031 -3.37304688 15.01257813 -3.33984375 13.83984375 C-3.21401644 9.06250531 -3.21401644 9.06250531 -3.8984375 4.359375 C-4.02347656 3.63105469 -4.14851562 2.90273437 -4.27734375 2.15234375 C-2.27734375 0.15234375 -2.27734375 0.15234375 0 0 Z " fill="#EF9435" transform="translate(245.27734375,250.84765625)"/>
<path d="M0 0 C0.495 0.99 0.495 0.99 1 2 C-1.16857247 4.16857247 -3.34014694 6.3235544 -5.5625 8.4375 C-7.86414037 10.85717321 -9.31507762 13.14295771 -11 16 C-13.88322753 19.45987304 -15.64533692 20.23793396 -20 21 C-21.35622245 21.96873032 -22.69417053 22.96434215 -24 24 C-24.66 24 -25.32 24 -26 24 C-26.33 25.32 -26.66 26.64 -27 28 C-27.66 28 -28.32 28 -29 28 C-29.66 29.32 -30.32 30.64 -31 32 C-31.66 32 -32.32 32 -33 32 C-33.33 33.65 -33.66 35.3 -34 37 C-35.98 37.495 -35.98 37.495 -38 38 C-38.0825 38.639375 -38.165 39.27875 -38.25 39.9375 C-40.30126665 48.31350549 -43.73576933 54.11000922 -51 59 C-51.66 59 -52.32 59 -53 59 C-51.50422087 52.68448811 -47.8146265 48.10466383 -44 43 C-43.24976562 41.96875 -42.49953125 40.9375 -41.7265625 39.875 C-36.29790771 32.57920559 -30.28967001 26.00560324 -23.875 19.5625 C-23.13531982 18.81742188 -22.39563965 18.07234375 -21.63354492 17.3046875 C-14.99131798 10.7470796 -7.85610468 5.03596454 0 0 Z " fill="#ECA763" transform="translate(151,104)"/>
<path d="M0 0 C2.125 0.375 2.125 0.375 4 1 C4.67310593 5.0614603 5.33735482 9.12432096 6 13.1875 C6.19078125 14.33798828 6.3815625 15.48847656 6.578125 16.67382812 C6.75859375 17.78564453 6.9390625 18.89746094 7.125 20.04296875 C7.29257813 21.06414795 7.46015625 22.08532715 7.6328125 23.13745117 C7.97414707 25.79845372 8.06884702 28.32142068 8 31 C3.74433453 32.16063604 0.3164922 31.76173392 -4 31 C-3.93941406 30.33097656 -3.87882813 29.66195313 -3.81640625 28.97265625 C-3.39532564 24.1464246 -3.00250055 19.32813702 -2.78125 14.48828125 C-2.72602173 13.3425061 -2.72602173 13.3425061 -2.66967773 12.17358398 C-2.59881885 10.65391102 -2.53569622 9.13385553 -2.48071289 7.61352539 C-2.22196255 2.22196255 -2.22196255 2.22196255 0 0 Z " fill="#ED994A" transform="translate(183,230)"/>
<path d="M0 0 C3.00664629 0.2405317 4.64329554 0.59553036 7.125 2.25 C8.75091155 5.5018231 8.28806852 9.07910038 8.29296875 12.65234375 C8.29629715 13.48584854 8.29962555 14.31935333 8.30305481 15.17811584 C8.30812161 16.94255012 8.31046321 18.706994 8.31030273 20.47143555 C8.31248841 23.17317469 8.33064426 25.87450506 8.34960938 28.57617188 C8.35254348 30.2890611 8.35452816 32.00195227 8.35546875 33.71484375 C8.36265427 34.5242894 8.36983978 35.33373505 8.37724304 36.16770935 C8.36139392 40.05245573 8.32986601 41.94270098 6.125 45.25 C3.9609375 45.98046875 3.9609375 45.98046875 1.5 46.4375 C0.68273437 46.59605469 -0.13453125 46.75460937 -0.9765625 46.91796875 C-1.60304688 47.02753906 -2.22953125 47.13710938 -2.875 47.25 C-4.92247898 44.17878154 -5.12627592 43.54875086 -5.13378906 40.08569336 C-5.14009338 39.25150375 -5.14639771 38.41731415 -5.15289307 37.55784607 C-5.1488446 36.6609053 -5.14479614 35.76396454 -5.140625 34.83984375 C-5.14253845 33.91659805 -5.1444519 32.99335236 -5.14642334 32.04212952 C-5.14778408 30.09115323 -5.14409541 28.14016786 -5.13574219 26.18920898 C-5.12502897 23.19559511 -5.13564751 20.2025797 -5.1484375 17.20898438 C-5.14711612 15.31510284 -5.14455419 13.42122167 -5.140625 11.52734375 C-5.14467346 10.62837875 -5.14872192 9.72941376 -5.15289307 8.8032074 C-5.14658875 7.97216995 -5.14028442 7.14113251 -5.13378906 6.28491211 C-5.13219788 5.55227646 -5.13060669 4.81964081 -5.12896729 4.06480408 C-4.65865505 0.70403828 -3.17641475 0.27620998 0 0 Z M-1.875 2.25 C-2.90051426 6.39645158 -2.91406772 10.1545887 -2.75390625 14.4140625 C-2.73029526 15.08795013 -2.70668427 15.76183777 -2.68235779 16.45614624 C-2.60622986 18.59600611 -2.5220697 20.73545875 -2.4375 22.875 C-2.35835712 25.02172064 -2.28082855 27.16849571 -2.20335388 29.3152771 C-2.13232811 31.25796794 -2.05759094 33.20052204 -1.98266602 35.14306641 C-1.88890709 37.84868117 -1.875 40.54333622 -1.875 43.25 C1.02573181 43.92801034 1.02573181 43.92801034 4.125 44.25 C6.54640773 42.27109678 6.54640773 42.27109678 6.35205078 38.44287109 C6.35173346 36.8030258 6.34039681 35.16315983 6.3203125 33.5234375 C6.3174826 32.66062164 6.31465271 31.79780579 6.31173706 30.90884399 C6.30052333 28.1474228 6.27541684 25.3863235 6.25 22.625 C6.23997173 20.75521301 6.23084562 18.88542095 6.22265625 17.015625 C6.20058012 12.42695891 6.16604234 7.83853407 6.125 3.25 C3.485 2.92 0.845 2.59 -1.875 2.25 Z " fill="#E99B4C" transform="translate(348.875,226.75)"/>
<path d="M0 0 C6.93 0 13.86 0 21 0 C21 0.66 21 1.32 21 2 C21.62437454 2.09177017 22.24874908 2.18354034 22.89204407 2.27809143 C23.58766953 2.51632126 24.28329498 2.75455109 25 3 C27.6742393 8.49702645 28.44258381 13.1438163 28.36328125 19.19140625 C28.36377975 19.94034653 28.36427826 20.6892868 28.36479187 21.46092224 C28.36246883 23.0315112 28.35284608 24.60210515 28.33618164 26.17260742 C28.31252402 28.56007561 28.31564238 30.94642804 28.32226562 33.33398438 C28.31668929 34.86979824 28.30957969 36.40560746 28.30078125 37.94140625 C28.30214836 38.99794151 28.30214836 38.99794151 28.30354309 40.07582092 C28.23718355 44.77066231 27.66518854 48.6417073 26 53 C24.515 53.495 24.515 53.495 23 54 C23 54.66 23 55.32 23 56 C20.03 56.495 20.03 56.495 17 57 C18.175625 56.13375 18.175625 56.13375 19.375 55.25 C22.31487117 52.73011042 23.75149106 50.86214389 24.26742554 46.99610901 C24.27504913 46.29171188 24.28267273 45.58731476 24.29052734 44.86157227 C24.30328705 44.05716202 24.31604675 43.25275177 24.32919312 42.42396545 C24.33141876 41.56347092 24.33364441 40.70297638 24.3359375 39.81640625 C24.3459227 38.47762672 24.3459227 38.47762672 24.35610962 37.11180115 C24.36622249 35.22649188 24.37092706 33.34114691 24.37060547 31.45581055 C24.37497941 28.57605911 24.41131466 25.69783985 24.44921875 22.81835938 C24.4550871 20.98438023 24.45905637 19.15039382 24.4609375 17.31640625 C24.47530853 16.45793594 24.48967957 15.59946564 24.50448608 14.71498108 C24.47323801 10.61393939 24.33266426 8.52766405 22.09619141 4.98022461 C19.26336469 2.30411729 17.65311545 1.870224 13.8671875 1.68359375 C13.06152344 1.64169922 12.25585938 1.59980469 11.42578125 1.55664062 C10.58402344 1.51732422 9.74226563 1.47800781 8.875 1.4375 C8.02550781 1.39431641 7.17601562 1.35113281 6.30078125 1.30664062 C4.20071777 1.20045764 2.10038052 1.09971503 0 1 C0 0.67 0 0.34 0 0 Z " fill="#F4A14A" transform="translate(338,221)"/>
<path d="M0 0 C2.72869407 0.03287583 5.2966618 0.56397771 8 1 C8.96306898 3.88920694 9.1955936 5.92247881 9.25 8.9375 C9.28867188 10.21947266 9.28867188 10.21947266 9.328125 11.52734375 C8.93005598 14.52707813 8.03796103 15.79538328 6 18 C3 20 3 20 0.8125 19.625 C-0.0846875 19.315625 -0.0846875 19.315625 -1 19 C-2.09583341 15.44073308 -2.16655685 12.08612704 -2.1875 8.375 C-2.20167969 7.22773438 -2.21585938 6.08046875 -2.23046875 4.8984375 C-2 2 -2 2 0 0 Z " fill="#EE963A" transform="translate(244,227)"/>
<path d="M0 0 C0.66 0.99 1.32 1.98 2 3 C-5.59160673 14.97621849 -13.2818004 26.16788405 -22.875 36.65234375 C-24.66145976 38.62598771 -26.37116352 40.6330777 -28.0625 42.6875 C-31.9107602 47.212968 -36.28969472 52.09656491 -42 54 C-41.67 52.35 -41.34 50.7 -41 49 C-40.38125 48.9175 -39.7625 48.835 -39.125 48.75 C-36.84696322 48.22658559 -36.84696322 48.22658559 -36.125 46.1875 C-34.49893243 43.02570195 -31.96379647 41.87505491 -29 40 C-26.17298945 37.67781277 -25.30128277 35.38333519 -24 32 C-23.34 31.34 -22.68 30.68 -22 30 C-21.01 30 -20.02 30 -19 30 C-18.731875 29.360625 -18.46375 28.72125 -18.1875 28.0625 C-17 26 -17 26 -14 25 C-14 23.35 -14 21.7 -14 20 C-13.01 19.67 -12.02 19.34 -11 19 C-10.67 18.01 -10.34 17.02 -10 16 C-9.34 16 -8.68 16 -8 16 C-7.566875 14.88625 -7.566875 14.88625 -7.125 13.75 C-6.17697356 11.43260203 -5.15154089 9.22082885 -4 7 C-3.34 7 -2.68 7 -2 7 C-1.855625 6.401875 -1.71125 5.80375 -1.5625 5.1875 C-1.1127561 3.43849596 -0.57107659 1.71322977 0 0 Z " fill="#E9A158" transform="translate(404,332)"/>
<path d="M0 0 C2.375 0.1875 2.375 0.1875 5 1 C6.96405723 4.70840637 7.24576375 7.84738369 7.1875 12 C7.18105469 13.010625 7.17460937 14.02125 7.16796875 15.0625 C7.01114401 17.80510945 6.61427548 20.32667311 6 23 C5.34 23 4.68 23 4 23 C4.33 25.31 4.66 27.62 5 30 C2.44886199 28.94435669 1.20622958 28.3402788 -0.25 25.9375 C-3.02320203 22.86716918 -5.96273011 23.26473901 -10 23 C-9.071875 22.87625 -9.071875 22.87625 -8.125 22.75 C-5.8963558 22.19962275 -5.8963558 22.19962275 -4.875 20.34375 C-3.76319513 17.36570123 -3.80607583 14.92051171 -3.875 11.75 C-3.89304688 10.67234375 -3.91109375 9.5946875 -3.9296875 8.484375 C-3.95289063 7.66453125 -3.97609375 6.8446875 -4 6 C-2.51171875 7.08203125 -2.51171875 7.08203125 -1 9 C-0.70703125 12.13671875 -0.70703125 12.13671875 -0.8125 15.6875 C-0.83957031 16.86699219 -0.86664063 18.04648438 -0.89453125 19.26171875 C-0.92933594 20.16535156 -0.96414062 21.06898438 -1 22 C1.95647225 20.81188641 1.95647225 20.81188641 3.75 18.375 C4.44174427 11.80342941 4.43917105 7.77780736 1 2 C0.67 1.34 0.34 0.68 0 0 Z " fill="#ED9747" transform="translate(256,223)"/>
<path d="M0 0 C0.66 0 1.32 0 2 0 C2 18.15 2 36.3 2 55 C-1 52 -1 52 -1.35644531 48.93164062 C-1.34709961 47.68576172 -1.33775391 46.43988281 -1.328125 45.15625 C-1.32661438 44.47848007 -1.32510376 43.80071014 -1.32354736 43.10240173 C-1.31419197 40.90120064 -1.28270463 38.70096772 -1.25 36.5 C-1.23811001 34.9974835 -1.22704347 33.49496025 -1.21679688 31.99243164 C-1.12292859 21.31165522 -0.77789178 10.65433925 0 0 Z " fill="#EB994E" transform="translate(234,222)"/>
<path d="M0 0 C0.66 0 1.32 0 2 0 C1.48130083 5.014092 0.59642542 9.21072375 -1 14 C-1.43596875 16.66425349 -1.72198118 19.31248476 -2 22 C-2.99 22.33 -3.98 22.66 -5 23 C-8.53004379 20.31959426 -9.17732301 16.66216772 -10.1875 12.5625 C-10.36474609 11.89412109 -10.54199219 11.22574219 -10.72460938 10.53710938 C-11.57718443 7.21568763 -12 4.4551409 -12 1 C-11.34 1 -10.68 1 -10 1 C-7.90284215 4.14573677 -7.47995441 6.01456251 -6.875 9.6875 C-6.70742188 10.68136719 -6.53984375 11.67523438 -6.3671875 12.69921875 C-6.24601562 13.45847656 -6.12484375 14.21773437 -6 15 C-5.34 14.67 -4.68 14.34 -4 14 C-3.38271587 11.5196061 -3.38271587 11.5196061 -3 8.625 C-2.45384568 4.9287056 -2.1101805 3.16527075 0 0 Z " fill="#EB9C45" transform="translate(388,221)"/>
<path d="M0 0 C0.66 0.33 1.32 0.66 2 1 C2.19329466 7.65656338 2.3707738 14.31341185 2.53710938 20.97070312 C2.5956132 23.23675139 2.65777655 25.50270818 2.72363281 27.76855469 C2.81750693 31.0200129 2.89834039 34.27156986 2.9765625 37.5234375 C3.00875885 38.54118256 3.0409552 39.55892761 3.0741272 40.60751343 C3.10438492 42.01874985 3.10438492 42.01874985 3.13525391 43.45849609 C3.16856308 44.70425919 3.16856308 44.70425919 3.20254517 45.97518921 C3 48 3 48 1 50 C0.67 45.71 0.34 41.42 0 37 C-0.33 37 -0.66 37 -1 37 C-1.0246826 32.05208706 -1.04285166 27.1042098 -1.05493164 22.15625 C-1.05996653 20.47232438 -1.06679481 18.78840314 -1.07543945 17.10449219 C-1.08754196 14.68683797 -1.09323668 12.26924144 -1.09765625 9.8515625 C-1.10281754 9.0963028 -1.10797882 8.34104309 -1.11329651 7.56289673 C-1.11387171 2.22774341 -1.11387171 2.22774341 0 0 Z " fill="#F6A062" transform="translate(287,222)"/>
<path d="M0 0 C1.34602732 4.68096069 0.31848678 8.40756609 -0.625 13.125 C-0.9857968 15.89110883 -0.6705787 17.37062561 0 20 C-1.31129922 21.35500919 -2.64691687 22.68671343 -4 24 C-4.79681318 26.64184541 -4.79681318 26.64184541 -5 29 C-5.66 29 -6.32 29 -7 29 C-7 30.32 -7 31.64 -7 33 C-7.66 33 -8.32 33 -9 33 C-9.04898438 33.98742187 -9.09796875 34.97484375 -9.1484375 35.9921875 C-9.22320312 37.27351563 -9.29796875 38.55484375 -9.375 39.875 C-9.44460937 41.15117187 -9.51421875 42.42734375 -9.5859375 43.7421875 C-10 47 -10 47 -12 49 C-11.24548063 31.87241028 -5.92272176 15.93811082 0 0 Z " fill="#EBA05A" transform="translate(88,180)"/>
<path d="M0 0 C0.66 0 1.32 0 2 0 C2.02505615 1.16982422 2.0501123 2.33964844 2.07592773 3.54492188 C2.17058729 7.91350982 2.27066153 12.28196028 2.37231445 16.65039062 C2.41544309 18.53577442 2.45713222 20.42119174 2.49731445 22.30664062 C2.5555558 25.02744624 2.61909068 27.74808648 2.68359375 30.46875 C2.70866249 31.71924133 2.70866249 31.71924133 2.73423767 32.99499512 C2.86053855 38.0623355 3.29184809 42.97993382 4 48 C6.31 48.66 8.62 49.32 11 50 C11 50.33 11 50.66 11 51 C3.48593571 51.36954415 3.48593571 51.36954415 1.39360046 49.77836609 C-0.41757131 47.46713949 -0.3635362 46.16909677 -0.34057617 43.25317383 C-0.34034958 42.29240433 -0.34012299 41.33163483 -0.33988953 40.3417511 C-0.32440567 39.30729355 -0.30892181 38.272836 -0.29296875 37.20703125 C-0.28872391 36.14586594 -0.28447906 35.08470062 -0.28010559 33.99137878 C-0.26329706 30.59816235 -0.22564019 27.20553728 -0.1875 23.8125 C-0.172456 21.51368044 -0.15876711 19.21485159 -0.14648438 16.91601562 C-0.11338645 11.27714158 -0.0631653 5.63861303 0 0 Z " fill="#F39F5F" transform="translate(276,222)"/>
<path d="M0 0 C0.33 0 0.66 0 1 0 C2.87645037 9.93004214 3.35967959 19.62261313 3.3125 29.6875 C3.31167419 30.43235657 3.31084839 31.17721313 3.30999756 31.94464111 C3.24220543 58.51558915 3.24220543 58.51558915 -2 69 C-1.67 63.39 -1.34 57.78 -1 52 C-0.34 52 0.32 52 1 52 C0.67 34.84 0.34 17.68 0 0 Z " fill="#ECB073" transform="translate(424,220)"/>
<path d="M0 0 C1.64574566 -0.02688151 3.29161413 -0.04634123 4.9375 -0.0625 C5.85402344 -0.07410156 6.77054687 -0.08570313 7.71484375 -0.09765625 C10 0 10 0 11 1 C11.08865208 3.8843382 11.11521296 6.74462158 11.09765625 9.62890625 C11.0962413 10.49313705 11.09482635 11.35736786 11.09336853 12.24778748 C11.08775239 15.01939292 11.07519719 17.7909188 11.0625 20.5625 C11.05748708 22.4368478 11.05292381 24.31119685 11.04882812 26.18554688 C11.03777772 30.79039544 11.0205023 35.39518421 11 40 C10.67 40 10.34 40 10 40 C10 27.46 10 14.92 10 2 C7.36 2 4.72 2 2 2 C2 13.55 2 25.1 2 37 C1.67 37 1.34 37 1 37 C-0.03155536 28.94526218 -0.11895318 20.9868879 -0.0625 12.875 C-0.05798828 11.63234375 -0.05347656 10.3896875 -0.04882812 9.109375 C-0.03714924 6.07286498 -0.0207714 3.03645912 0 0 Z " fill="#EA974C" transform="translate(268,220)"/>
<path d="M0 0 C1.65 0.66 3.3 1.32 5 2 C5 2.66 5 3.32 5 4 C5.66 4 6.32 4 7 4 C11.94706615 11.12377526 11.18621732 18.45959771 11.18530273 26.80883789 C11.1874959 29.05829605 11.20569057 31.30726871 11.22460938 33.55664062 C11.22754238 34.98697749 11.2295278 36.41731668 11.23046875 37.84765625 C11.23457764 39.14711182 11.23868652 40.44656738 11.24291992 41.78540039 C11 45 11 45 9 48 C8.98541748 46.94087402 8.97083496 45.88174805 8.95581055 44.79052734 C8.89762673 40.84292658 8.82039593 36.89588429 8.73754883 32.94873047 C8.70439364 31.24374488 8.67633263 29.53865202 8.65356445 27.83349609 C8.61984432 25.37551366 8.56752206 22.91850594 8.51171875 20.4609375 C8.50532883 19.70444916 8.4989389 18.94796082 8.49235535 18.16854858 C8.36178328 13.4171337 7.54982678 10.14758082 5 6 C1.47792605 3.1320255 -3.3952193 3.5483246 -7.75 3.375 C-8.54277344 3.33632812 -9.33554687 3.29765625 -10.15234375 3.2578125 C-12.10119416 3.163892 -14.05056451 3.08087178 -16 3 C-16 2.67 -16 2.34 -16 2 C-10.72 2 -5.44 2 0 2 C0 1.34 0 0.68 0 0 Z " fill="#E6A15F" transform="translate(320,219)"/>
<path d="M0 0 C10.42820845 -0.22554649 20.77831045 1.01677017 31.1328125 2.12109375 C31.1328125 2.45109375 31.1328125 2.78109375 31.1328125 3.12109375 C30.10623535 3.11062012 29.0796582 3.10014648 28.02197266 3.08935547 C24.11917782 3.05245029 20.2163974 3.02994413 16.31347656 3.01123047 C14.64190049 3.00133004 12.97034095 2.98780622 11.29882812 2.97021484 C-0.52552205 2.8491221 -12.1682946 3.26491267 -23.8671875 5.12109375 C-24.1971875 5.45109375 -24.5271875 5.78109375 -24.8671875 6.12109375 C-26.88682949 6.19353428 -28.90885874 6.20486563 -30.9296875 6.18359375 C-32.03441406 6.17457031 -33.13914063 6.16554688 -34.27734375 6.15625 C-35.55931641 6.13884766 -35.55931641 6.13884766 -36.8671875 6.12109375 C-36.8671875 5.79109375 -36.8671875 5.46109375 -36.8671875 5.12109375 C-24.57822403 2.76073357 -12.5207351 0.52880489 0 0 Z " fill="#EEBC8E" transform="translate(245.8671875,72.87890625)"/>
<path d="M0 0 C0.66 0 1.32 0 2 0 C2.33951619 1.56116819 2.67132544 3.12401338 3 4.6875 C3.185625 5.55761719 3.37125 6.42773438 3.5625 7.32421875 C3.98972047 9.93712964 4.07616201 12.35813038 4 15 C5.32 15 6.64 15 8 15 C8 13.68 8 12.36 8 11 C8.66 11 9.32 11 10 11 C10 12.98 10 14.96 10 17 C17.26 17 24.52 17 32 17 C32 17.33 32 17.66 32 18 C26.74894558 18.02464928 21.49792455 18.04283568 16.24682617 18.05493164 C14.45905979 18.05997218 12.67129755 18.06680454 10.88354492 18.07543945 C8.31948832 18.0875173 5.75548603 18.09323094 3.19140625 18.09765625 C1.98515343 18.10539818 1.98515343 18.10539818 0.75453186 18.11329651 C-1.16401715 18.11349215 -3.08245368 18.06201983 -5 18 C-6 17 -6 17 -6.09765625 14.71484375 C-6.08605469 13.79832031 -6.07445312 12.88179688 -6.0625 11.9375 C-6.05347656 11.01839844 -6.04445312 10.09929687 -6.03515625 9.15234375 C-6.02355469 8.44207031 -6.01195312 7.73179687 -6 7 C-4 9 -4 9 -3.8046875 10.9453125 C-3.86979167 12.96354167 -3.93489583 14.98177083 -4 17 C-2.02 17 -0.04 17 2 17 C1.855625 16.19175781 1.71125 15.38351562 1.5625 14.55078125 C1.376875 13.48214844 1.19125 12.41351563 1 11.3125 C0.814375 10.25675781 0.62875 9.20101563 0.4375 8.11328125 C0.04931926 5.35095938 -0.08259976 2.78257957 0 0 Z " fill="#E89F50" transform="translate(197,261)"/>
<path d="M0 0 C0.66 0 1.32 0 2 0 C2 16.5 2 33 2 50 C0.515 50.495 0.515 50.495 -1 51 C-0.67 34.17 -0.34 17.34 0 0 Z " fill="#F2CE8A" transform="translate(294,222)"/>
<path d="M0 0 C0.66 1.32 1.32 2.64 2 4 C2.66 3.67 3.32 3.34 4 3 C4 3.66 4 4.32 4 5 C4.66 5.33 5.32 5.66 6 6 C5 8 5 8 3.00292969 8.86669922 C0.84635477 9.80790251 0.84635477 9.80790251 0.27050781 11.87939453 C0.16577148 12.62302246 0.06103516 13.36665039 -0.046875 14.1328125 C-0.16933594 14.93847656 -0.29179688 15.74414062 -0.41796875 16.57421875 C-0.52753906 17.41597656 -0.63710937 18.25773437 -0.75 19.125 C-0.87503906 19.97449219 -1.00007813 20.82398438 -1.12890625 21.69921875 C-1.43535194 23.79719312 -1.71978158 25.89836182 -2 28 C-1.01 28 -0.02 28 1 28 C1 28.66 1 29.32 1 30 C-0.32 30 -1.64 30 -3 30 C-3 22.08 -3 14.16 -3 6 C-5.31 6 -7.62 6 -10 6 C-10 5.67 -10 5.34 -10 5 C-5.545 4.505 -5.545 4.505 -1 4 C-0.67 2.68 -0.34 1.36 0 0 Z " fill="#F09038" transform="translate(117,216)"/>
<path d="M0 0 C-0.65266846 0.39944824 -1.30533691 0.79889648 -1.9777832 1.21044922 C-4.18570492 2.80243077 -4.18570492 2.80243077 -4.43823242 5.16064453 C-4.41092041 5.97645996 -4.3836084 6.79227539 -4.35546875 7.6328125 C-4.33806641 8.52097656 -4.32066406 9.40914062 -4.30273438 10.32421875 C-4.26470703 11.24847656 -4.22667969 12.17273438 -4.1875 13.125 C-4.13544668 14.96083169 -4.08706578 16.79677247 -4.04296875 18.6328125 C-4.01227295 19.44637207 -3.98157715 20.25993164 -3.94995117 21.09814453 C-4 23 -4 23 -5 24 C-5.15582303 25.34015221 -5.25044142 26.68758903 -5.31640625 28.03515625 C-5.37924805 29.24848633 -5.37924805 29.24848633 -5.44335938 30.48632812 C-5.48267578 31.33646484 -5.52199219 32.18660156 -5.5625 33.0625 C-5.60568359 33.91650391 -5.64886719 34.77050781 -5.69335938 35.65039062 C-5.79976702 37.76672037 -5.90041731 39.88333813 -6 42 C-6.66 42 -7.32 42 -8 42 C-8.02467467 36.34000977 -8.04284788 30.68005068 -8.05493164 25.02001953 C-8.05996787 23.09358169 -8.06679712 21.16714769 -8.07543945 19.24072266 C-8.08753608 16.47557632 -8.09323533 13.71048042 -8.09765625 10.9453125 C-8.10281754 10.0806839 -8.10797882 9.2160553 -8.11329651 8.32522583 C-8.11387171 2.22774341 -8.11387171 2.22774341 -7 0 C-3.86650268 -1.04449911 -3.01031744 -0.93423645 0 0 Z " fill="#E49D4D" transform="translate(317,228)"/>
<path d="M0 0 C3.125 0.25 3.125 0.25 7.125 2.25 C7.125 12.81 7.125 23.37 7.125 34.25 C6.795 34.25 6.465 34.25 6.125 34.25 C6.125 24.02 6.125 13.79 6.125 3.25 C3.485 2.92 0.845 2.59 -1.875 2.25 C-3.09818866 5.91956597 -3.10616124 9.37321003 -3.19140625 13.19921875 C-3.21218735 13.97183548 -3.23296844 14.74445221 -3.25437927 15.54048157 C-3.31971038 18.0060648 -3.37868315 20.47175361 -3.4375 22.9375 C-3.48070087 24.61003691 -3.52431566 26.28256319 -3.56835938 27.95507812 C-3.6753749 32.0532775 -3.77668857 36.15158296 -3.875 40.25 C-4.205 40.25 -4.535 40.25 -4.875 40.25 C-4.92435509 34.87485095 -4.96069802 29.49983315 -4.98486328 24.12451172 C-4.99493484 22.29506127 -5.00859276 20.46562697 -5.02587891 18.63623047 C-5.05007677 16.01005066 -5.06147132 13.38408325 -5.0703125 10.7578125 C-5.08063507 9.93693146 -5.09095764 9.11605042 -5.10159302 8.27029419 C-5.10199184 6.26210858 -4.9974954 4.25444618 -4.875 2.25 C-2.875 0.25 -2.875 0.25 0 0 Z " fill="#F5B77C" transform="translate(348.875,226.75)"/>
<path d="M0 0 C0.33 0.66 0.66 1.32 1 2 C-1.16857247 4.16857247 -3.34014694 6.3235544 -5.5625 8.4375 C-7.86414037 10.85717321 -9.31507762 13.14295771 -11 16 C-13.0625 18.3125 -13.0625 18.3125 -15 20 C-15.66 20 -16.32 20 -17 20 C-16.67 18.02 -16.34 16.04 -16 14 C-15.34 14 -14.68 14 -14 14 C-13.76152344 13.25105469 -13.52304688 12.50210938 -13.27734375 11.73046875 C-11.80226962 8.57732864 -10.35215784 7.35091993 -7.5625 5.3125 C-6.38880859 4.44044922 -6.38880859 4.44044922 -5.19140625 3.55078125 C-3.48005128 2.33971543 -1.74441408 1.16294272 0 0 Z " fill="#EC903C" transform="translate(151,104)"/>
<path d="M0 0 C0.66 0.33 1.32 0.66 2 1 C1.67 3.31 1.34 5.62 1 8 C1.66 8 2.32 8 3 8 C3.66 9.98 4.32 11.96 5 14 C1.37 13.67 -2.26 13.34 -6 13 C-6 11.35 -6 9.7 -6 8 C-5.01 8 -4.02 8 -3 8 C-2.87625 7.05125 -2.7525 6.1025 -2.625 5.125 C-2 2 -2 2 0 0 Z " fill="#EF9335" transform="translate(185,248)"/>
<path d="M0 0 C0.99 0 1.98 0 3 0 C4.43512012 4.30536036 4.35330781 8.69190179 4.51757812 13.1953125 C4.7005396 16.93739253 4.87684352 18.81526529 7 22 C7.14245897 24.76655324 7.18769445 27.42653306 7.125 30.1875 C7.11597656 30.93708984 7.10695312 31.68667969 7.09765625 32.45898438 C7.07412578 34.30612654 7.03825561 36.15310412 7 38 C6.67 38 6.34 38 6 38 C1.63724293 10.83596307 1.63724293 10.83596307 0 0 Z " fill="#EDA963" transform="translate(190,222)"/>
<path d="M0 0 C2.32891212 3.49336818 2.23551143 4.86007865 2.1953125 8.98046875 C2.18886719 10.14384766 2.18242187 11.30722656 2.17578125 12.50585938 C2.15902344 13.72080078 2.14226562 14.93574219 2.125 16.1875 C2.11597656 17.41404297 2.10695313 18.64058594 2.09765625 19.90429688 C2.07406017 22.93639295 2.04113841 25.96809938 2 29 C1.01 29 0.02 29 -1 29 C-1.02918874 25.29168337 -1.04686218 21.58339658 -1.0625 17.875 C-1.07087891 16.82828125 -1.07925781 15.7815625 -1.08789062 14.703125 C-1.10375207 9.6909095 -1.08177213 4.92334088 0 0 Z " fill="#E8964D" transform="translate(377,249)"/>
<path d="M0 0 C1.47906892 -0.02689216 2.95827483 -0.04634621 4.4375 -0.0625 C5.26121094 -0.07410156 6.08492187 -0.08570313 6.93359375 -0.09765625 C9 0 9 0 10 1 C10.125 4 10.125 4 10 7 C8.12175109 8.87824891 4.96064724 8.39102397 2.4375 8.5625 C1.23996094 8.64628906 0.04242188 8.73007813 -1.19140625 8.81640625 C-2.11824219 8.87699219 -3.04507813 8.93757812 -4 9 C-3.67 9.99 -3.34 10.98 -3 12 C-2.93197033 13.72795352 -2.91504355 15.45835365 -2.9375 17.1875 C-2.94652344 18.08855469 -2.95554688 18.98960937 -2.96484375 19.91796875 C-2.97644531 20.60503906 -2.98804688 21.29210937 -3 22 C-3.66 22 -4.32 22 -5 22 C-5.22127098 19.70954632 -5.4266504 17.41755236 -5.625 15.125 C-5.74101562 13.84882813 -5.85703125 12.57265625 -5.9765625 11.2578125 C-5.98816406 9.64519531 -5.98816406 9.64519531 -6 8 C-4 6 -4 6 -1.1796875 5.8046875 C-0.08914062 5.82789063 1.00140625 5.85109375 2.125 5.875 C3.22070312 5.89304688 4.31640625 5.91109375 5.4453125 5.9296875 C6.28835937 5.95289063 7.13140625 5.97609375 8 6 C8 4.35 8 2.7 8 1 C5.36 1 2.72 1 0 1 C0 0.67 0 0.34 0 0 Z " fill="#E9A953" transform="translate(154,245)"/>
<path d="M0 0 C0.66 0.33 1.32 0.66 2 1 C0.68592176 6.84034773 -2.57091053 11.08483442 -7 15 C-9.2265625 15.73046875 -9.2265625 15.73046875 -11 16 C-9.68122033 11.0845485 -7.62482608 6.63558224 -4 3 C-3.01 3 -2.02 3 -1 3 C-0.67 2.01 -0.34 1.02 0 0 Z " fill="#ED8F3B" transform="translate(109,147)"/>
<path d="M0 0 C1.32 0.33 2.64 0.66 4 1 C4.33 4.63 4.66 8.26 5 12 C4.67 11.34 4.34 10.68 4 10 C3.01 10.33 2.02 10.66 1 11 C0.67 12.65 0.34 14.3 0 16 C-0.66 16 -1.32 16 -2 16 C-2.05384521 13.70858714 -2.09272087 11.41681812 -2.125 9.125 C-2.14820313 7.84882813 -2.17140625 6.57265625 -2.1953125 5.2578125 C-2 2 -2 2 0 0 Z " fill="#F0B15B" transform="translate(183,230)"/>
<path d="M0 0 C7.16592913 0.57874611 7.16592913 0.57874611 9.78515625 3.27734375 C11.46849639 8.43958684 12.16551587 12.86185848 10.72265625 18.15234375 C10.39265625 18.15234375 10.06265625 18.15234375 9.72265625 18.15234375 C9.39265625 13.86234375 9.06265625 9.57234375 8.72265625 5.15234375 C7.07265625 4.82234375 5.42265625 4.49234375 3.72265625 4.15234375 C3.72265625 3.49234375 3.72265625 2.83234375 3.72265625 2.15234375 C2.40265625 2.48234375 1.08265625 2.81234375 -0.27734375 3.15234375 C-0.60734375 6.45234375 -0.93734375 9.75234375 -1.27734375 13.15234375 C-1.60734375 13.15234375 -1.93734375 13.15234375 -2.27734375 13.15234375 C-2.66619414 11.36363197 -3.03803571 9.57121501 -3.40234375 7.77734375 C-3.61117187 6.77960938 -3.82 5.781875 -4.03515625 4.75390625 C-4.11507812 3.89539063 -4.195 3.036875 -4.27734375 2.15234375 C-2.27734375 0.15234375 -2.27734375 0.15234375 0 0 Z " fill="#F2A850" transform="translate(245.27734375,250.84765625)"/>
<path d="M0 0 C-0.95703478 7.38605667 -2.04129209 14.14117712 -5 21 C-5.99 21 -6.98 21 -8 21 C-7.39297368 14.3227105 -5.22368606 8.29872004 -3 2 C-4.32 1.67 -5.64 1.34 -7 1 C-2.25 0 -2.25 0 0 0 Z " fill="#EC9D50" transform="translate(399,220)"/>
<path d="M0 0 C0.33 0 0.66 0 1 0 C1 10.23 1 20.46 1 31 C0.01 31.33 -0.98 31.66 -2 32 C-2.73323796 34.01508358 -2.73323796 34.01508358 -3 36 C-3.1098113 29.30151095 -2.96073701 22.64213241 -2 16 C-1.67 15.67 -1.34 15.34 -1 15 C-0.76346477 12.47403741 -0.57826308 9.96892793 -0.4375 7.4375 C-0.39431641 6.72658203 -0.35113281 6.01566406 -0.30664062 5.28320312 C-0.20028223 3.52238088 -0.09961154 1.7612168 0 0 Z " fill="#F6B72F" transform="translate(207,240)"/>
<path d="M0 0 C8.25 0 16.5 0 25 0 C25 0.33 25 0.66 25 1 C17.74 1 10.48 1 3 1 C3 6.94 3 12.88 3 19 C0.51752547 15.2762882 0.55677028 12.13234385 0.375 7.8125 C0.25125 5.234375 0.1275 2.65625 0 0 Z " fill="#E49C56" transform="translate(140,221)"/>
<path d="M0 0 C0.66 0.99 1.32 1.98 2 3 C0.29673465 5.66993437 -1.41356129 8.3352988 -3.125 11 C-3.599375 11.74378906 -4.07375 12.48757813 -4.5625 13.25390625 C-7.83447853 18.33873775 -11.30675915 23.21264674 -15 28 C-15.33 27.01 -15.66 26.02 -16 25 C-15.34 25 -14.68 25 -14 25 C-14 23.35 -14 21.7 -14 20 C-13.01 19.67 -12.02 19.34 -11 19 C-10.67 18.01 -10.34 17.02 -10 16 C-9.34 16 -8.68 16 -8 16 C-7.566875 14.88625 -7.566875 14.88625 -7.125 13.75 C-6.17697356 11.43260203 -5.15154089 9.22082885 -4 7 C-3.34 7 -2.68 7 -2 7 C-1.855625 6.401875 -1.71125 5.80375 -1.5625 5.1875 C-1.1127561 3.43849596 -0.57107659 1.71322977 0 0 Z " fill="#ECA66C" transform="translate(404,332)"/>
<path d="M0 0 C0.8971875 0.99 0.8971875 0.99 1.8125 2 C3.87501834 4.3373846 3.87501834 4.3373846 7 4 C6.6875 5.9375 6.6875 5.9375 6 8 C2.82212459 9.0592918 0.57411057 9.11458939 -2.76171875 9.09765625 C-3.87998047 9.09443359 -4.99824219 9.09121094 -6.15039062 9.08789062 C-7.31763672 9.07951172 -8.48488281 9.07113281 -9.6875 9.0625 C-10.86634766 9.05798828 -12.04519531 9.05347656 -13.25976562 9.04882812 C-16.17322789 9.03703273 -19.08658863 9.0205727 -22 9 C-22 8.67 -22 8.34 -22 8 C-14.74 8 -7.48 8 0 8 C0 5.36 0 2.72 0 0 Z " fill="#E8984F" transform="translate(165,270)"/>
<path d="M0 0 C4.84824224 1.45147993 9.07829372 3.47209295 13.5 5.875 C14.45712891 6.38353516 14.45712891 6.38353516 15.43359375 6.90234375 C19.45095175 9.06300869 23.24247844 11.41380461 27 14 C26.01 14.495 26.01 14.495 25 15 C23.31791365 14.02616054 21.65261839 13.02304948 20 12 C19.2575 11.814375 18.515 11.62875 17.75 11.4375 C17.1725 11.293125 16.595 11.14875 16 11 C15.67 10.34 15.34 9.68 15 9 C10.11334456 6.70626377 5.06331064 4.86543024 0 3 C0 2.01 0 1.02 0 0 Z " fill="#EDA062" transform="translate(320,88)"/>
<path d="M0 0 C1.4540625 0.0309375 1.4540625 0.0309375 2.9375 0.0625 C2.6075 0.7225 2.2775 1.3825 1.9375 2.0625 C0.9475 2.0625 -0.0425 2.0625 -1.0625 2.0625 C-1.03929688 2.78953125 -1.01609375 3.5165625 -0.9921875 4.265625 C-0.85782331 11.7516301 -1.60523001 18.72410471 -3.0625 26.0625 C-3.3925 26.0625 -3.7225 26.0625 -4.0625 26.0625 C-4.09136751 21.91668113 -4.10925327 17.77088784 -4.125 13.625 C-4.13337891 12.44099609 -4.14175781 11.25699219 -4.15039062 10.03710938 C-4.15361328 8.91240234 -4.15683594 7.78769531 -4.16015625 6.62890625 C-4.16539307 5.58677979 -4.17062988 4.54465332 -4.17602539 3.47094727 C-4.00522792 -0.15253028 -3.69847781 0.07547914 0 0 Z " fill="#EAA250" transform="translate(118.0625,250.9375)"/>
<path d="M0 0 C0.33 0 0.66 0 1 0 C1.04941382 5.35683849 1.08572607 10.7135445 1.10986328 16.07055664 C1.11992491 17.89317129 1.1335756 19.71576979 1.15087891 21.53833008 C1.17512021 24.15710435 1.18648138 26.77566531 1.1953125 29.39453125 C1.20563507 30.21025101 1.21595764 31.02597076 1.22659302 31.8664093 C1.2273686 35.77130756 1.21650661 37.67524008 -1 41 C-3.625 41.1875 -3.625 41.1875 -6 41 C-5.0409375 40.505 -5.0409375 40.505 -4.0625 40 C1.39709572 34.70584658 -0.64869795 21.84106821 -0.4375 14.5 C-0.39422263 13.09113527 -0.35060569 11.68228093 -0.30664062 10.2734375 C-0.20109429 6.8490454 -0.09898202 3.42458708 0 0 Z " fill="#E39E63" transform="translate(356,231)"/>
<path d="M0 0 C0 0.66 0 1.32 0 2 C-1.28777344 2.13277344 -2.57554687 2.26554687 -3.90234375 2.40234375 C-5.58075362 2.58049899 -7.25913773 2.75889692 -8.9375 2.9375 C-9.78763672 3.02451172 -10.63777344 3.11152344 -11.51367188 3.20117188 C-12.72700195 3.33168945 -12.72700195 3.33168945 -13.96484375 3.46484375 C-14.7137085 3.543396 -15.46257324 3.62194824 -16.23413086 3.70288086 C-18.02140013 3.8280738 -18.02140013 3.8280738 -19 5 C-21.01964199 5.07244053 -23.04167124 5.08377188 -25.0625 5.0625 C-26.16722656 5.05347656 -27.27195313 5.04445313 -28.41015625 5.03515625 C-29.69212891 5.01775391 -29.69212891 5.01775391 -31 5 C-31 4.67 -31 4.34 -31 4 C-27.52334554 3.31977517 -24.04335552 2.65835989 -20.5625 2 C-19.58861328 1.80921875 -18.61472656 1.6184375 -17.61132812 1.421875 C-11.62817406 0.30128427 -6.0863887 -0.201411 0 0 Z " fill="#EDB176" transform="translate(240,74)"/>
<path d="M0 0 C1.48828125 1.08203125 1.48828125 1.08203125 3 3 C3.29296875 6.13671875 3.29296875 6.13671875 3.1875 9.6875 C3.16042969 10.86699219 3.13335937 12.04648438 3.10546875 13.26171875 C3.07066406 14.16535156 3.03585938 15.06898438 3 16 C3.99 15.67 4.98 15.34 6 15 C6 15.66 6 16.32 6 17 C1.91556885 18.53166168 -1.79455657 17.63081652 -6 17 C-5.071875 16.87625 -5.071875 16.87625 -4.125 16.75 C-1.8963558 16.19962275 -1.8963558 16.19962275 -0.875 14.34375 C0.23680487 11.36570123 0.19392417 8.92051171 0.125 5.75 C0.10695312 4.67234375 0.08890625 3.5946875 0.0703125 2.484375 C0.04710937 1.66453125 0.02390625 0.8446875 0 0 Z " fill="#EB9B57" transform="translate(252,229)"/>
<path d="M0 0 C3.04502599 3.6677167 5.66822653 7.45403735 8.1875 11.5 C9.22970703 13.15515625 9.22970703 13.15515625 10.29296875 14.84375 C11.83665267 17.69797565 12.60140904 19.81127236 13 23 C12.01 22.34 11.02 21.68 10 21 C10 20.01 10 19.02 10 18 C9.34 18 8.68 18 8 18 C8 17.34 8 16.68 8 16 C7.34 16 6.68 16 6 16 C4.87119943 12.68885166 3.78697325 9.41021743 3 6 C2.34 6 1.68 6 1 6 C0.67 4.02 0.34 2.04 0 0 Z " fill="#EAA868" transform="translate(395,149)"/>
<path d="M0 0 C5.05311 3.05846132 9.23517107 6.82196173 13.5859375 10.8046875 C16.32390735 13.29455652 19.13301934 15.66114735 22 18 C21.34 18.33 20.68 18.66 20 19 C15.99908085 17.66636028 14.66353833 15.196246 12 12 C11.01 11.67 10.02 11.34 9 11 C6.3125 8.5625 6.3125 8.5625 4 6 C4 5.34 4 4.68 4 4 C2.68 3.67 1.36 3.34 0 3 C0 2.01 0 1.02 0 0 Z " fill="#E9AF77" transform="translate(355,108)"/>
<path d="M0 0 C1.90845703 0.17982422 1.90845703 0.17982422 3.85546875 0.36328125 C4.83128906 0.47027344 5.80710938 0.57726562 6.8125 0.6875 C6.8125 1.0175 6.8125 1.3475 6.8125 1.6875 C2.1925 1.6875 -2.4275 1.6875 -7.1875 1.6875 C-7.001875 2.71875 -6.81625 3.75 -6.625 4.8125 C-6.21442918 8.44898442 -6.409191 11.14187009 -7.1875 14.6875 C-9.62236607 12.25263393 -9.62959813 11.11324894 -10 7.75 C-10.10957031 6.87472656 -10.21914062 5.99945313 -10.33203125 5.09765625 C-10.1875 2.6875 -10.1875 2.6875 -9.1484375 0.8515625 C-6.07657596 -0.97197284 -3.49335575 -0.35254049 0 0 Z " fill="#EBA44D" transform="translate(158.1875,227.3125)"/>
<path d="M0 0 C0.99 0.33 1.98 0.66 3 1 C2.55793031 3.47559028 2.11776245 4.85851 0.48901367 6.81542969 C-1.31293672 9.45911752 -1.41943412 11.02853368 -1.51171875 14.203125 C-1.54716797 15.1828125 -1.58261719 16.1625 -1.61914062 17.171875 C-1.64169922 18.18765625 -1.66425781 19.2034375 -1.6875 20.25 C-1.72166016 21.28125 -1.75582031 22.3125 -1.79101562 23.375 C-1.87338093 25.91655812 -1.94256834 28.45777626 -2 31 C-2.33 31 -2.66 31 -3 31 C-3.08796382 27.33348753 -3.14071247 23.66725082 -3.1875 20 C-3.21263672 18.97003906 -3.23777344 17.94007813 -3.26367188 16.87890625 C-3.32462779 10.49885379 -2.66268638 5.81458023 0 0 Z " fill="#E7974C" transform="translate(389,243)"/>
<path d="M0 0 C-0.33 7.59 -0.66 15.18 -1 23 C-0.01 23 0.98 23 2 23 C2 23.66 2 24.32 2 25 C0.68 25 -0.64 25 -2 25 C-2 17.08 -2 9.16 -2 1 C-4.31 1 -6.62 1 -9 1 C-9 0.67 -9 0.34 -9 0 C-2.25 -1.125 -2.25 -1.125 0 0 Z " fill="#E89852" transform="translate(116,221)"/>
<path d="M0 0 C2.31 0 4.62 0 7 0 C7.33 1.65 7.66 3.3 8 5 C8.99 5.33 9.98 5.66 11 6 C11 6.66 11 7.32 11 8 C12.65 8.33 14.3 8.66 16 9 C16.33 9.99 16.66 10.98 17 12 C12.90498884 10.56525156 9.7396239 8.56534514 6.25 6 C5.28578125 5.29875 4.3215625 4.5975 3.328125 3.875 C1 2 1 2 0 0 Z " fill="#E99E5B" transform="translate(142,388)"/>
<path d="M0 0 C2 3 2 3 1.75 6.5625 C1 10 1 10 -1 12 C-3.12890625 12.23046875 -3.12890625 12.23046875 -5.5625 12.1875 C-6.77099609 12.17783203 -6.77099609 12.17783203 -8.00390625 12.16796875 C-10 12 -10 12 -11 11 C-11.04092937 8.66702567 -11.04241723 6.33294775 -11 4 C-10.34 3.67 -9.68 3.34 -9 3 C-9 5.64 -9 8.28 -9 11 C-5.535 10.505 -5.535 10.505 -2 10 C-1.34 6.7 -0.68 3.4 0 0 Z " fill="#EA9045" transform="translate(116,267)"/>
<path d="M0 0 C6.93 0 13.86 0 21 0 C21 0.66 21 1.32 21 2 C21.639375 2.12375 22.27875 2.2475 22.9375 2.375 C23.9584375 2.684375 23.9584375 2.684375 25 3 C26.60725635 6.21451269 26.05748185 9.43612536 26 13 C25.67 13 25.34 13 25 13 C24.6596875 11.39125 24.6596875 11.39125 24.3125 9.75 C22.78812301 5.39463717 21.90479991 4.35914995 18 2 C14.89788261 1.39410922 11.8421571 1.304777 8.6875 1.25 C7.85154297 1.22035156 7.01558594 1.19070312 6.15429688 1.16015625 C4.10337515 1.08983893 2.05168438 1.04261027 0 1 C0 0.67 0 0.34 0 0 Z " fill="#E5A354" transform="translate(338,221)"/>
<path d="M0 0 C0.33 0 0.66 0 1 0 C1.33 3.96 1.66 7.92 2 12 C0.02 12 -1.96 12 -4 12 C-4.66 11.34 -5.32 10.68 -6 10 C-5.65066406 9.52949219 -5.30132812 9.05898437 -4.94140625 8.57421875 C-4.48636719 7.95160156 -4.03132813 7.32898438 -3.5625 6.6875 C-2.88380859 5.76517578 -2.88380859 5.76517578 -2.19140625 4.82421875 C-0.82663692 2.90322899 -0.82663692 2.90322899 0 0 Z " fill="#F1983C" transform="translate(124,235)"/>
<path d="M0 0 C2.64 0.33 5.28 0.66 8 1 C8 1.33 8 1.66 8 2 C6.02 2 4.04 2 2 2 C2.3609375 3.05960938 2.721875 4.11921875 3.09375 5.2109375 C3.56265793 6.59890499 4.03139931 7.98692875 4.5 9.375 C4.85771484 10.42300781 4.85771484 10.42300781 5.22265625 11.4921875 C7 16.7734375 7 16.7734375 7 19 C6.34 19 5.68 19 5 19 C4.15399724 16.9635505 3.3237175 14.92056513 2.5 12.875 C1.80390625 11.16957031 1.80390625 11.16957031 1.09375 9.4296875 C0.01684959 6.0528355 -0.21360807 3.51385272 0 0 Z " fill="#EBA461" transform="translate(367,220)"/>
<path d="M0 0 C8.59868438 0.61419174 16.69484752 2.80907021 25 5 C25 5.33 25 5.66 25 6 C18.59919028 6.25101215 18.59919028 6.25101215 15.6875 5.03125 C12.46353749 3.79414811 9.62810439 3.58352148 6.1875 3.375 C5.02605469 3.30023438 3.86460937 3.22546875 2.66796875 3.1484375 C1.78753906 3.09945312 0.90710938 3.05046875 0 3 C0 2.01 0 1.02 0 0 Z " fill="#E8AD78" transform="translate(278,76)"/>
<path d="M0 0 C0.33 0 0.66 0 1 0 C1.07347656 1.12535156 1.07347656 1.12535156 1.1484375 2.2734375 C1.7145573 13.44304262 1.7145573 13.44304262 5 24 C4.34 24.99 3.68 25.98 3 27 C2.29397371 24.19104563 1.61011156 21.37947712 0.9375 18.5625 C0.63875977 17.3878418 0.63875977 17.3878418 0.33398438 16.18945312 C-1.01601145 10.43420776 -0.92963017 5.84088388 0 0 Z " fill="#E9A464" transform="translate(78,273)"/>
<path d="M0 0 C2 3.75 2 3.75 2 6 C2.91523438 5.90460938 3.83046875 5.80921875 4.7734375 5.7109375 C6.55621094 5.54464844 6.55621094 5.54464844 8.375 5.375 C9.55835938 5.25898438 10.74171875 5.14296875 11.9609375 5.0234375 C12.96382812 5.01570313 13.96671875 5.00796875 15 5 C15.66 5.66 16.32 6.32 17 7 C15 9 15 9 11.8125 9.046875 C9.9253125 8.89992188 9.9253125 8.89992188 8 8.75 C6.741875 8.66234375 5.48375 8.5746875 4.1875 8.484375 C1 8 1 8 -1 6 C-0.625 2.875 -0.625 2.875 0 0 Z " fill="#F0B531" transform="translate(214,265)"/>
<path d="M0 0 C1.670625 0.061875 1.670625 0.061875 3.375 0.125 C2.385 0.62 2.385 0.62 1.375 1.125 C1.705 2.115 2.035 3.105 2.375 4.125 C0.725 4.455 -0.925 4.785 -2.625 5.125 C-2.955 7.105 -3.285 9.085 -3.625 11.125 C-4.285 11.125 -4.945 11.125 -5.625 11.125 C-5.67899736 9.66707116 -5.71779177 8.20857288 -5.75 6.75 C-5.78480469 5.53183594 -5.78480469 5.53183594 -5.8203125 4.2890625 C-5.45446636 0.2354873 -3.82558513 0.13191673 0 0 Z " fill="#EFAD46" transform="translate(182.625,265.875)"/>
<path d="M0 0 C0.33 0 0.66 0 1 0 C1.02929977 3.35414799 1.0468989 6.70826253 1.0625 10.0625 C1.07087891 11.00544922 1.07925781 11.94839844 1.08789062 12.91992188 C1.10581103 18.0630768 0.89259611 22.93258427 0 28 C-0.33 28 -0.66 28 -1 28 C-1.84023188 23.64667264 -2.10770995 19.55557481 -2.0625 15.125 C-2.05347656 13.97257813 -2.04445313 12.82015625 -2.03515625 11.6328125 C-2.02355469 10.76398438 -2.01195312 9.89515625 -2 9 C-1.67 9 -1.34 9 -1 9 C-0.67 6.03 -0.34 3.06 0 0 Z " fill="#F4CB20" transform="translate(270,238)"/>
<path d="M0 0 C2.375 0.1875 2.375 0.1875 5 1 C7.04229588 4.80860582 7.21882972 8.04324762 7.125 12.3125 C7.10695313 13.38113281 7.08890625 14.44976562 7.0703125 15.55078125 C7.03550781 16.76314453 7.03550781 16.76314453 7 18 C6.01 18 5.02 18 4 18 C4.03480469 17.34773438 4.06960938 16.69546875 4.10546875 16.0234375 C4.27666767 10.49615811 4.01587247 6.82539595 1 2 C0.67 1.34 0.34 0.68 0 0 Z " fill="#F0AC6A" transform="translate(256,223)"/>
<path d="M0 0 C1.12894876 0.93274109 2.25300876 1.87140122 3.375 2.8125 C4.00148438 3.33457031 4.62796875 3.85664063 5.2734375 4.39453125 C7 6 7 6 9 9 C8.01 9.33 7.02 9.66 6 10 C5.26676204 12.01508358 5.26676204 12.01508358 5 14 C4.01 14 3.02 14 2 14 C1.67 13.01 1.34 12.02 1 11 C1.99 10.67 2.98 10.34 4 10 C4 8.35 4 6.7 4 5 C3.34 5 2.68 5 2 5 C1.34 3.35 0.68 1.7 0 0 Z " fill="#E8984B" transform="translate(376,127)"/>
<path d="M0 0 C0.33 0.99 0.66 1.98 1 3 C-0.40893147 4.63171123 -1.82745958 6.25513945 -3.25 7.875 C-4.03890625 8.77992188 -4.8278125 9.68484375 -5.640625 10.6171875 C-7.74691403 12.74439993 -9.25651526 13.90512306 -12 15 C-11.319375 14.1646875 -11.319375 14.1646875 -10.625 13.3125 C-8.96040521 10.94365357 -8.05807512 8.68045697 -7 6 C-6.34 5.34 -5.68 4.68 -5 4 C-4.01 4 -3.02 4 -2 4 C-1.34 2.68 -0.68 1.36 0 0 Z " fill="#E89E55" transform="translate(387,358)"/>
<path d="M0 0 C0 0.66 0 1.32 0 2 C-2.64 2 -5.28 2 -8 2 C-8 2.99 -8 3.98 -8 5 C-10.31 5 -12.62 5 -15 5 C-15 4.01 -15 3.02 -15 2 C-15.99 1.67 -16.98 1.34 -18 1 C-15.37504621 0.83257698 -12.75004205 0.6660283 -10.125 0.5 C-9.00544922 0.42845703 -9.00544922 0.42845703 -7.86328125 0.35546875 C-2.2265625 0 -2.2265625 0 0 0 Z " fill="#EB9147" transform="translate(323,277)"/>
<path d="M0 0 C0.66 0 1.32 0 2 0 C2 6.27 2 12.54 2 19 C1.34 19.33 0.68 19.66 0 20 C-1.01593448 13.11422188 -0.83854735 6.90188971 0 0 Z " fill="#DA9044" transform="translate(141,256)"/>
<path d="M0 0 C0.33 0 0.66 0 1 0 C1.33848652 1.89492006 1.67056911 3.79098466 2 5.6875 C2.185625 6.74324219 2.37125 7.79898438 2.5625 8.88671875 C2.95068074 11.64904062 3.08259976 14.21742043 3 17 C2.34 17 1.68 17 1 17 C-0.60553445 15.07335866 -1.87816502 13.24366996 -3 11 C-2.34938905 9.32700041 -1.67966676 7.66140763 -1 6 C-0.62406934 4.0075675 -0.28020455 2.0081326 0 0 Z " fill="#EE9F5F" transform="translate(188,244)"/>
<path d="M0 0 C-0.99 0.33 -1.98 0.66 -3 1 C-3 1.66 -3 2.32 -3 3 C-4.32 3 -5.64 3 -7 3 C-7 3.66 -7 4.32 -7 5 C-7.99 5 -8.98 5 -10 5 C-10.66 5.66 -11.32 6.32 -12 7 C-13.32 7 -14.64 7 -16 7 C-16 7.66 -16 8.32 -16 9 C-17.32 9.33 -18.64 9.66 -20 10 C-19 7 -19 7 -17.35766602 5.90917969 C-16.66342529 5.58336914 -15.96918457 5.25755859 -15.25390625 4.921875 C-14.12178711 4.38820313 -14.12178711 4.38820313 -12.96679688 3.84375 C-12.17337891 3.4828125 -11.37996094 3.121875 -10.5625 2.75 C-9.77294922 2.37359375 -8.98339844 1.9971875 -8.16992188 1.609375 C-2.26151316 -1.13075658 -2.26151316 -1.13075658 0 0 Z " fill="#EDA35B" transform="translate(184,88)"/>
<path d="M0 0 C1.85625 0.061875 1.85625 0.061875 3.75 0.125 C0.03809631 2.59960246 -3.38811362 3.31255875 -7.6875 4.3125 C-8.45126953 4.50263672 -9.21503906 4.69277344 -10.00195312 4.88867188 C-11.11280273 5.15067383 -11.11280273 5.15067383 -12.24609375 5.41796875 C-13.25434204 5.65809692 -13.25434204 5.65809692 -14.28295898 5.90307617 C-16.51356246 6.15473542 -18.12013053 5.78740813 -20.25 5.125 C-18.11591886 2.99091886 -13.89959899 3.18147834 -11.01171875 2.72265625 C-8.28850736 2.25522395 -8.28850736 2.25522395 -6.16015625 1.06640625 C-3.9349501 -0.03026999 -2.46157795 -0.0820526 0 0 Z " fill="#E9AC6F" transform="translate(302.25,416.875)"/>
<path d="M0 0 C5.28 0.33 10.56 0.66 16 1 C16 1.66 16 2.32 16 3 C18.475 3.495 18.475 3.495 21 4 C17.1645717 5.2784761 14.9924117 4.55760637 11.0625 3.6875 C9.83660156 3.42324219 8.61070312 3.15898437 7.34765625 2.88671875 C4 2 4 2 0 0 Z " fill="#EBAA68" transform="translate(198,418)"/>
<path d="M0 0 C1.98 0 3.96 0 6 0 C6 0.99 6 1.98 6 3 C7.11375 3.0825 8.2275 3.165 9.375 3.25 C10.57125 3.4975 11.7675 3.745 13 4 C14.2265625 6.046875 14.2265625 6.046875 15 8 C9.3723345 6.34921812 4.67132966 4.59333051 0 1 C0 0.67 0 0.34 0 0 Z " fill="#E8A25B" transform="translate(159,400)"/>
<path d="M0 0 C-0.66 0.66 -1.32 1.32 -2 2 C-3.32 2 -4.64 2 -6 2 C-6 8.93 -6 15.86 -6 23 C-6.33 23 -6.66 23 -7 23 C-7.19635974 19.54210946 -7.38058252 16.08367803 -7.5625 12.625 C-7.61857422 11.64015625 -7.67464844 10.6553125 -7.73242188 9.640625 C-7.80493164 8.22910156 -7.80493164 8.22910156 -7.87890625 6.7890625 C-7.9260376 5.91975098 -7.97316895 5.05043945 -8.02172852 4.15478516 C-8 2 -8 2 -7 0 C-3.86650268 -1.04449911 -3.01031744 -0.93423645 0 0 Z " fill="#F6C262" transform="translate(317,228)"/>
<path d="M0 0 C-2.60316291 1.11564125 -4.95549279 1.99190778 -7.75 2.5 C-8.4925 2.665 -9.235 2.83 -10 3 C-10.33 3.66 -10.66 4.32 -11 5 C-13.50390625 5.4140625 -13.50390625 5.4140625 -16.5625 5.625 C-17.57441406 5.69976562 -18.58632812 5.77453125 -19.62890625 5.8515625 C-20.41136719 5.90054688 -21.19382813 5.94953125 -22 6 C-18.67091833 3.78061222 -15.31854136 2.57651775 -11.5625 1.3125 C-10.89412109 1.07466797 -10.22574219 0.83683594 -9.53710938 0.59179688 C-3.4625144 -1.46116337 -3.4625144 -1.46116337 0 0 Z " fill="#ECA464" transform="translate(209,80)"/>
<path d="M0 0 C2.52775351 3.79163027 2.22443035 6.80874031 2.125 11.1875 C2.11597656 11.93708984 2.10695312 12.68667969 2.09765625 13.45898438 C2.07412578 15.30612654 2.03825561 17.15310412 2 19 C1.01 18.67 0.02 18.34 -1 18 C-0.505 9.09 -0.505 9.09 0 0 Z " fill="#F58B3F" transform="translate(141,237)"/>
<path d="M0 0 C0.99 0 1.98 0 3 0 C3 1.32 3 2.64 3 4 C6.3 4 9.6 4 13 4 C9.02499663 6.65000225 5.67879249 6.74930382 1 6 C-1.0625 4 -1.0625 4 -2 2 C-1.34 1.34 -0.68 0.68 0 0 Z " fill="#F1B337" transform="translate(149,267)"/>
<path d="M0 0 C0.66 0 1.32 0 2 0 C4.06240906 3.09361358 4.38991902 4.46698546 4.75 8.0625 C4.84796875 8.94035156 4.9459375 9.81820312 5.046875 10.72265625 C5 13 5 13 3 15 C2.49363393 13.25183142 1.99515381 11.50137737 1.5 9.75 C1.2215625 8.77546875 0.943125 7.8009375 0.65625 6.796875 C0 4 0 4 0 0 Z " fill="#EBA55F" transform="translate(376,222)"/>
<path d="M0 0 C0.99 0 1.98 0 3 0 C2.67 0.99 2.34 1.98 2 3 C1.85013589 4.9906444 1.75171962 6.98535391 1.68359375 8.98046875 C1.64169922 10.14384766 1.59980469 11.30722656 1.55664062 12.50585938 C1.51732422 13.72080078 1.47800781 14.93574219 1.4375 16.1875 C1.39431641 17.41404297 1.35113281 18.64058594 1.30664062 19.90429688 C1.2004691 22.93608381 1.09842048 25.96795315 1 29 C0.67 29 0.34 29 0 29 C0 19.43 0 9.86 0 0 Z " fill="#EF933F" transform="translate(215,222)"/>
<path d="M0 0 C1.00289062 0.10183594 2.00578125 0.20367187 3.0390625 0.30859375 C3.80992187 0.39238281 4.58078125 0.47617188 5.375 0.5625 C5.375 0.8925 5.375 1.2225 5.375 1.5625 C2.075 1.5625 -1.225 1.5625 -4.625 1.5625 C-4.955 4.2025 -5.285 6.8425 -5.625 9.5625 C-5.955 8.9025 -6.285 8.2425 -6.625 7.5625 C-7.285 7.2325 -7.945 6.9025 -8.625 6.5625 C-8.25 3.625 -8.25 3.625 -7.625 0.5625 C-4.89657939 -0.80171031 -3.01546682 -0.31557211 0 0 Z " fill="#EB944B" transform="translate(184.625,220.4375)"/>
<path d="M0 0 C1.65 0 3.3 0 5 0 C2.59888822 2.63884562 -0.00555028 4.36413529 -3.0625 6.1875 C-3.94035156 6.71730469 -4.81820313 7.24710937 -5.72265625 7.79296875 C-8 9 -8 9 -10 9 C-10 8.01 -10 7.02 -10 6 C-8.02 5.67 -6.04 5.34 -4 5 C-4 4.34 -4 3.68 -4 3 C-3.01 2.67 -2.02 2.34 -1 2 C-0.67 1.34 -0.34 0.68 0 0 Z " fill="#EAA060" transform="translate(342,397)"/>
<path d="M0 0 C2.10448938 0.14109986 4.2085877 0.28804175 6.3125 0.4375 C7.48425781 0.51871094 8.65601563 0.59992188 9.86328125 0.68359375 C13 1 13 1 16 2 C10.98197344 5.34535104 5.71011977 4.11416971 0 3 C0 2.01 0 1.02 0 0 Z " fill="#E69A53" transform="translate(273,277)"/>
<path d="M0 0 C0.66 0 1.32 0 2 0 C2.25 5.625 2.25 5.625 0 9 C-0.66 9 -1.32 9 -2 9 C-2 9.66 -2 10.32 -2 11 C-3.98 11.33 -5.96 11.66 -8 12 C-7.236875 11.505 -6.47375 11.01 -5.6875 10.5 C-2.17518641 7.23273154 -1.43675644 4.5371256 0 0 Z " fill="#EAA96C" transform="translate(363,266)"/>
<path d="M0 0 C2.79794127 0.01798163 5.56201769 0.11890813 8.3515625 0.33203125 C5.33665693 2.3419683 3.1365698 3.05826466 -0.3359375 3.95703125 C-1.82673828 4.34761719 -1.82673828 4.34761719 -3.34765625 4.74609375 C-4.10691406 4.93945312 -4.86617188 5.1328125 -5.6484375 5.33203125 C-4.52887184 1.88721383 -3.69126529 0.46276925 0 0 Z " fill="#E9A05B" transform="translate(311.6484375,411.66796875)"/>
<path d="M0 0 C0.33 0 0.66 0 1 0 C0.51358785 6.84817102 -0.35993952 13.33042073 -2 20 C-2.33 20 -2.66 20 -3 20 C-2.67 14.39 -2.34 8.78 -2 3 C-1.34 3 -0.68 3 0 3 C0 2.01 0 1.02 0 0 Z " fill="#F3AB74" transform="translate(425,269)"/>
<path d="M0 0 C0.66 0 1.32 0 2 0 C4 3 4 3 4 6 C4.99 6 5.98 6 7 6 C7.66 8.31 8.32 10.62 9 13 C8.01 13.495 8.01 13.495 7 14 C4.69 9.38 2.38 4.76 0 0 Z " fill="#ECA86C" transform="translate(93,329)"/>
<path d="M0 0 C0.66 0.99 1.32 1.98 2 3 C0.8828125 6.13671875 0.8828125 6.13671875 -0.875 9.6875 C-1.44992187 10.86699219 -2.02484375 12.04648437 -2.6171875 13.26171875 C-3.07351563 14.16535156 -3.52984375 15.06898438 -4 16 C-4.33 16 -4.66 16 -5 16 C-5 14.02 -5 12.04 -5 10 C-4.01 9.67 -3.02 9.34 -2 9 C-2 7.35 -2 5.7 -2 4 C-1.34 4 -0.68 4 0 4 C0 2.68 0 1.36 0 0 Z " fill="#EAAB6E" transform="translate(411,317)"/>
<path d="M0 0 C0.33 0.66 0.66 1.32 1 2 C-1.52788007 4.79872437 -3.20411134 6.45773019 -7 7 C-7 7.66 -7 8.32 -7 9 C-8.65 9.33 -10.3 9.66 -12 10 C-8.29909479 6.0747975 -4.45040344 3.05419844 0 0 Z " fill="#EDAC6A" transform="translate(151,104)"/>
<path d="M0 0 C1.32 0.33 2.64 0.66 4 1 C4.33 2.32 4.66 3.64 5 5 C5.66 5 6.32 5 7 5 C7.33 6.98 7.66 8.96 8 11 C4.32966073 7.72291137 2.30718811 4.28477792 0 0 Z " fill="#EBA463" transform="translate(103,346)"/>
<path d="M0 0 C0.33 0.66 0.66 1.32 1 2 C1.66 2.33 2.32 2.66 3 3 C-2.445 5.475 -2.445 5.475 -8 8 C-8.33 7.01 -8.66 6.02 -9 5 C-8.43410156 4.89042969 -7.86820312 4.78085937 -7.28515625 4.66796875 C-6.18494141 4.43013672 -6.18494141 4.43013672 -5.0625 4.1875 C-4.33160156 4.03667969 -3.60070312 3.88585937 -2.84765625 3.73046875 C-2.23792969 3.48941406 -1.62820313 3.24835938 -1 3 C-0.67 2.01 -0.34 1.02 0 0 Z " fill="#EEA162" transform="translate(329,404)"/>
<path d="M0 0 C3.46464111 0.27173656 4.68165104 0.93690865 7.1875 3.25 C4.2175 2.92 1.2475 2.59 -1.8125 2.25 C-2.1425 3.24 -2.4725 4.23 -2.8125 5.25 C-3.4725 5.25 -4.1325 5.25 -4.8125 5.25 C-3.70130761 0.32900512 -3.70130761 0.32900512 0 0 Z " fill="#E9B845" transform="translate(348.8125,226.75)"/>
<path d="M0 0 C0.33 1.32 0.66 2.64 1 4 C0.34 4 -0.32 4 -1 4 C-1.33 5.32 -1.66 6.64 -2 8 C-2.66 8 -3.32 8 -4 8 C-4.33 9.65 -4.66 11.3 -5 13 C-5.66 13 -6.32 13 -7 13 C-5.58832253 7.73829306 -3.25149768 4.27828642 0 0 Z " fill="#EAAA6D" transform="translate(105,150)"/>
<path d="M0 0 C1.60597325 0.45196245 3.20972508 0.91182327 4.8125 1.375 C6.15248047 1.75785156 6.15248047 1.75785156 7.51953125 2.1484375 C10 3 10 3 13 5 C9.37 5 5.74 5 2 5 C1.34 3.35 0.68 1.7 0 0 Z " fill="#EDA260" transform="translate(307,83)"/>
<path d="M0 0 C1.65 0.66 3.3 1.32 5 2 C5 2.33 5 2.66 5 3 C-1.93 3 -8.86 3 -16 3 C-16 2.67 -16 2.34 -16 2 C-10.72 2 -5.44 2 0 2 C0 1.34 0 0.68 0 0 Z " fill="#E49D50" transform="translate(320,219)"/>
<path d="M0 0 C-1.11328125 1.48828125 -1.11328125 1.48828125 -3 3 C-5.91796875 3.29296875 -5.91796875 3.29296875 -9.1875 3.1875 C-10.27417969 3.16042969 -11.36085937 3.13335937 -12.48046875 3.10546875 C-13.72763672 3.05326172 -13.72763672 3.05326172 -15 3 C-15 2.67 -15 2.34 -15 2 C-9.92523206 0.73694665 -5.27203646 -0.27036084 0 0 Z " fill="#EFA954" transform="translate(224,76)"/>
<path d="M0 0 C1.60294922 0.15275391 1.60294922 0.15275391 3.23828125 0.30859375 C4.45064453 0.43427734 4.45064453 0.43427734 5.6875 0.5625 C5.6875 0.8925 5.6875 1.2225 5.6875 1.5625 C3.22970024 1.78376178 0.77222352 1.99000395 -1.6875 2.1875 C-2.73550781 2.28417969 -2.73550781 2.28417969 -3.8046875 2.3828125 C-5.63619111 2.52369739 -7.47562748 2.55011659 -9.3125 2.5625 C-9.9725 1.9025 -10.6325 1.2425 -11.3125 0.5625 C-7.36602382 -0.42594951 -4.03857036 -0.39941905 0 0 Z " fill="#E89D46" transform="translate(351.3125,277.4375)"/>
<path d="M0 0 C0 0.66 0 1.32 0 2 C-4.14659373 3.19799449 -7.99369047 2.8896192 -12.25 2.5625 C-12.99507812 2.51029297 -13.74015625 2.45808594 -14.5078125 2.40429688 C-16.33894861 2.2751783 -18.16953813 2.13834886 -20 2 C-20 1.67 -20 1.34 -20 1 C-17.22922802 0.83225597 -14.45839073 0.66576064 -11.6875 0.5 C-10.90181641 0.45230469 -10.11613281 0.40460938 -9.30664062 0.35546875 C-8.54931641 0.31035156 -7.79199219 0.26523437 -7.01171875 0.21875 C-6.31522217 0.17685547 -5.61872559 0.13496094 -4.90112305 0.09179688 C-3.26903034 0.01299029 -1.63399421 0 0 0 Z " fill="#EA974B" transform="translate(257,277)"/>
<path d="M0 0 C4.29 0 8.58 0 13 0 C10 3 10 3 8.02734375 3.3984375 C6.01397078 3.37585762 4.00442972 3.19089807 2 3 C1.34 2.01 0.68 1.02 0 0 Z " fill="#EEB336" transform="translate(242,270)"/>
<path d="M0 0 C0.66 0 1.32 0 2 0 C1.67 3.3 1.34 6.6 1 10 C0.01 9.34 -0.98 8.68 -2 8 C-1.125 1.125 -1.125 1.125 0 0 Z " fill="#F0984A" transform="translate(172,260)"/>
<path d="M0 0 C0.33 0.66 0.66 1.32 1 2 C3.97 2 6.94 2 10 2 C10 2.33 10 2.66 10 3 C3.565 3.495 3.565 3.495 -3 4 C-3 3.01 -3 2.02 -3 1 C-2.01 0.67 -1.02 0.34 0 0 Z " fill="#EE9546" transform="translate(151,242)"/>
<path d="M0 0 C0.66 0 1.32 0 2 0 C1.19642857 8.03571429 1.19642857 8.03571429 -1 12 C-1.02687279 10.18757948 -1.04633715 8.37504767 -1.0625 6.5625 C-1.07410156 5.55316406 -1.08570313 4.54382813 -1.09765625 3.50390625 C-1 1 -1 1 0 0 Z " fill="#EEA663" transform="translate(388,221)"/>
<path d="M0 0 C3.45925163 1.2491742 6.14693203 2.67527795 9 5 C8.67 5.99 8.34 6.98 8 8 C6.85073734 7.04578192 5.70569459 6.08647955 4.5625 5.125 C3.92441406 4.59132813 3.28632813 4.05765625 2.62890625 3.5078125 C1 2 1 2 0 0 Z " fill="#E8A456" transform="translate(128,376)"/>
<path d="M0 0 C-3.01887244 3.48331435 -5.56909529 4.79157144 -10 6 C-8.20404732 1.26521567 -5.07984355 -1.69328118 0 0 Z " fill="#ECB078" transform="translate(377,374)"/>
<path d="M0 0 C0.33 0 0.66 0 1 0 C1 5.28 1 10.56 1 16 C0.01 16.33 -0.98 16.66 -2 17 C-1.76990234 16.21882813 -1.76990234 16.21882813 -1.53515625 15.421875 C-0.86017489 12.36721485 -0.65588882 9.36984029 -0.4375 6.25 C-0.35371094 5.07953125 -0.26992188 3.9090625 -0.18359375 2.703125 C-0.12300781 1.81109375 -0.06242187 0.9190625 0 0 Z " fill="#E49855" transform="translate(295,256)"/>
<path d="M0 0 C0.33 0 0.66 0 1 0 C1 4.29 1 8.58 1 13 C1.99 12.67 2.98 12.34 4 12 C4 12.66 4 13.32 4 14 C2.1875 14.625 2.1875 14.625 0 15 C-0.99 14.34 -1.98 13.68 -3 13 C-2.01 13 -1.02 13 0 13 C0 8.71 0 4.42 0 0 Z " fill="#FFF95C" transform="translate(254,232)"/>
<path d="M0 0 C1.9375 0.375 1.9375 0.375 4 1 C5.60725635 4.21451269 5.05748185 7.43612536 5 11 C4.67 11 4.34 11 4 11 C3.71125 9.9275 3.4225 8.855 3.125 7.75 C2.27179891 4.90599636 1.4363497 2.56491017 0 0 Z " fill="#ECA266" transform="translate(359,223)"/>
<path d="M0 0 C2.02350324 3.03525486 2.32124018 4.19426202 2.625 7.6875 C2.69976562 8.49574219 2.77453125 9.30398437 2.8515625 10.13671875 C2.90054687 10.75160156 2.94953125 11.36648437 3 12 C2.67 11.01 2.34 10.02 2 9 C1.34 9 0.68 9 0 9 C-1.10844919 5.67465243 -0.84454356 3.37817425 0 0 Z " fill="#EBA969" transform="translate(419,199)"/>
<path d="M0 0 C5.2688172 7.90322581 5.2688172 7.90322581 4.6875 12.4375 C4.460625 12.953125 4.23375 13.46875 4 14 C1.01520806 9.52281208 0 5.36175907 0 0 Z " fill="#EFA66A" transform="translate(414,185)"/>
<path d="M0 0 C3.37503669 1.1858237 5.64722731 2.27573689 8 5 C6.02 5.33 4.04 5.66 2 6 C1.34 4.02 0.68 2.04 0 0 Z " fill="#EE9F5F" transform="translate(347,103)"/>
<path d="M0 0 C2.97 0.33 5.94 0.66 9 1 C9 1.66 9 2.32 9 3 C6.03 3 3.06 3 0 3 C0 2.01 0 1.02 0 0 Z " fill="#ED9E5C" transform="translate(278,76)"/>
<path d="M0 0 C1.125 1.6875 1.125 1.6875 2 4 C1.125 6.75 1.125 6.75 0 9 C-1.3950848 6.70221327 -2.07438619 5.5207033 -1.6875 2.8125 C-1 1 -1 1 0 0 Z " fill="#F3A238" transform="translate(174,251)"/>
<path d="M0 0 C0.33 1.98 0.66 3.96 1 6 C-2.16115776 4.63016497 -2.9927092 4.0109362 -5 1 C-3 0 -3 0 0 0 Z " fill="#EB9F54" transform="translate(260,247)"/>
<path d="M0 0 C2.31 0 4.62 0 7 0 C6.01 0.495 6.01 0.495 5 1 C5.33 1.99 5.66 2.98 6 4 C4.35 3.67 2.7 3.34 1 3 C0.67 2.01 0.34 1.02 0 0 Z " fill="#F8A046" transform="translate(179,266)"/>
<path d="M0 0 C0.33 0 0.66 0 1 0 C1 2.31 1 4.62 1 7 C0.34 7 -0.32 7 -1 7 C-1 7.99 -1 8.98 -1 10 C-1.66 10 -2.32 10 -3 10 C-2.01 6.7 -1.02 3.4 0 0 Z " fill="#F1A961" transform="translate(84,192)"/>
<path d="M0 0 C2.31 0 4.62 0 7 0 C7 0.66 7 1.32 7 2 C7.66 2 8.32 2 9 2 C9 2.66 9 3.32 9 4 C6.03 3.01 3.06 2.02 0 1 C0 0.67 0 0.34 0 0 Z " fill="#EFAD69" transform="translate(175,409)"/>
<path d="M0 0 C1.98 0 3.96 0 6 0 C6.66 1.65 7.32 3.3 8 5 C4.62496331 3.8141763 2.35277269 2.72426311 0 0 Z " fill="#EEAE6A" transform="translate(159,400)"/>
<path d="M0 0 C3 1 3 1 6 3 C5.67 3.66 5.34 4.32 5 5 C3.68 4.67 2.36 4.34 1 4 C0.67 2.68 0.34 1.36 0 0 Z " fill="#F1B927" transform="translate(242,242)"/>
<path d="M0 0 C5.53846154 0.61538462 5.53846154 0.61538462 7.875 2.5625 C8.431875 3.2740625 8.431875 3.2740625 9 4 C3.46153846 3.38461538 3.46153846 3.38461538 1.125 1.4375 C0.75375 0.963125 0.3825 0.48875 0 0 Z " fill="#E39957" transform="translate(326,92)"/>
<path d="" fill="#FFFFFF" transform="translate(0,0)"/>
<path d="" fill="#FFFFFF" transform="translate(0,0)"/>
<path d="" fill="#FFFFFF" transform="translate(0,0)"/>
<path d="" fill="#FFFFFF" transform="translate(0,0)"/>
<path d="" fill="#FFFFFF" transform="translate(0,0)"/>
<path d="" fill="#FFFFFF" transform="translate(0,0)"/>
<path d="" fill="#FFFFFF" transform="translate(0,0)"/>
<path d="" fill="#FFFFFF" transform="translate(0,0)"/>
<path d="" fill="#FFFFFF" transform="translate(0,0)"/>
<path d="" fill="#FFFFFF" transform="translate(0,0)"/>
<path d="" fill="#FFFFFF" transform="translate(0,0)"/>
<path d="" fill="#FFFFFF" transform="translate(0,0)"/>
<path d="" fill="#FFFFFF" transform="translate(0,0)"/>
<path d="" fill="#FFFFFF" transform="translate(0,0)"/>
<path d="" fill="#FFFFFF" transform="translate(0,0)"/>
<path d="" fill="#FFFFFF" transform="translate(0,0)"/>
<path d="" fill="#FFFFFF" transform="translate(0,0)"/>
<path d="" fill="#FFFFFF" transform="translate(0,0)"/>
<path d="" fill="#FFFFFF" transform="translate(0,0)"/>
<path d="" fill="#FFFFFF" transform="translate(0,0)"/>
<path d="" fill="#FFFFFF" transform="translate(0,0)"/>
<path d="" fill="#FFFFFF" transform="translate(0,0)"/>
<path d="" fill="#FFFFFF" transform="translate(0,0)"/>
<path d="" fill="#FFFFFF" transform="translate(0,0)"/>
<path d="" fill="#FFFFFF" transform="translate(0,0)"/>
<path d="" fill="#FFFFFF" transform="translate(0,0)"/>
<path d="" fill="#FFFFFF" transform="translate(0,0)"/>
<path d="" fill="#FFFFFF" transform="translate(0,0)"/>
<path d="" fill="#FFFFFF" transform="translate(0,0)"/>
<path d="" fill="#FFFFFF" transform="translate(0,0)"/>
<path d="" fill="#FFFFFF" transform="translate(0,0)"/>
<path d="" fill="#FFFFFF" transform="translate(0,0)"/>
<path d="" fill="#FFFFFF" transform="translate(0,0)"/>
<path d="" fill="#FFFFFF" transform="translate(0,0)"/>
<path d="" fill="#FFFFFF" transform="translate(0,0)"/>
<path d="" fill="#FFFFFF" transform="translate(0,0)"/>
<path d="" fill="#FFFFFF" transform="translate(0,0)"/>
<path d="" fill="#FFFFFF" transform="translate(0,0)"/>
<path d="" fill="#FFFFFF" transform="translate(0,0)"/>
<path d="" fill="#FFFFFF" transform="translate(0,0)"/>
<path d="" fill="#FFFFFF" transform="translate(0,0)"/>
<path d="" fill="#FFFFFF" transform="translate(0,0)"/>
<path d="" fill="#FFFFFF" transform="translate(0,0)"/>
<path d="" fill="#FFFFFF" transform="translate(0,0)"/>
<path d="" fill="#FFFFFF" transform="translate(0,0)"/>
<path d="" fill="#FFFFFF" transform="translate(0,0)"/>
<path d="" fill="#FFFFFF" transform="translate(0,0)"/>
<path d="" fill="#FFFFFF" transform="translate(0,0)"/>
<path d="" fill="#FFFFFF" transform="translate(0,0)"/>
<path d="" fill="#FFFFFF" transform="translate(0,0)"/>
<path d="" fill="#FFFFFF" transform="translate(0,0)"/>
<path d="" fill="#FFFFFF" transform="translate(0,0)"/>
<path d="" fill="#FFFFFF" transform="translate(0,0)"/>
<path d="" fill="#FFFFFF" transform="translate(0,0)"/>
<path d="" fill="#FFFFFF" transform="translate(0,0)"/>
<path d="" fill="#FFFFFF" transform="translate(0,0)"/>
<path d="" fill="#FFFFFF" transform="translate(0,0)"/>
<path d="" fill="#FFFFFF" transform="translate(0,0)"/>
<path d="" fill="#FFFFFF" transform="translate(0,0)"/>
<path d="" fill="#FFFFFF" transform="translate(0,0)"/>
<path d="" fill="#FFFFFF" transform="translate(0,0)"/>
<path d="" fill="#FFFFFF" transform="translate(0,0)"/>
<path d="" fill="#FFFFFF" transform="translate(0,0)"/>
</svg>
